<?xml version="1.0" encoding="UTF-8"?>
<svg width="65px" height="91px" viewBox="0 0 65 91" version="1.1" xmlns="http://www.w3.org/2000/svg" xmlns:xlink="http://www.w3.org/1999/xlink">
    <!-- Generator: Sketch 43.2 (39069) - http://www.bohemiancoding.com/sketch -->
    <title>Group 8</title>
    <desc>Created with Sketch.</desc>
    <defs></defs>
    <g id="Page-1" stroke="none" stroke-width="1" fill="none" fill-rule="evenodd">
        <g id="Check-Out-Flows---Pusty-Koszyk---iP6" transform="translate(-155.000000, -271.000000)" fill="#B8C1CE">
            <g id="Group-8" transform="translate(156.000000, 272.000000)">
                <g id="Group-6">
                    <g id="Page-1">
                        <path d="M24.2026486,66.4868273 C24.0688288,67.150043 24.4921861,67.8009769 25.1491199,67.9385327 C25.7987544,68.0687195 26.450822,67.6462266 26.587075,66.9805546 C27.0663933,64.6077163 29.1588491,62.8882683 31.560307,62.8882683 C33.961765,62.8882683 36.0542207,64.6077163 36.5335391,66.9805546 C36.6527604,67.5602542 37.1588427,67.9606399 37.7233192,67.9606399 C37.8036111,67.9606399 37.8887691,67.9557272 37.9714941,67.9385327 C38.6284279,67.8009769 39.0517853,67.150043 38.9179654,66.4868273 C38.2050706,62.9791534 35.1126156,60.431914 31.560307,60.431914 C28.0079984,60.431914 24.9155434,62.9791534 24.2026486,66.4868273 Z" id="Fill-4"></path>
                        <path d="M3.52991565,85.3361533 L5.82188464,29.5155019 L12.4934122,29.5155019 L12.9800298,43.3619711 C13.01166,44.3101238 13.7610511,45.1551097 14.7391525,45.0200102 C15.6807576,44.9856212 16.4155502,44.1897625 16.381487,43.2416097 L15.8997355,29.5155019 L47.2208785,29.5155019 L46.7391271,43.2416097 C46.7050639,44.1897625 47.4398565,44.9856212 48.3814615,45.0200102 C49.3546968,45.0224666 50.1113872,44.290473 50.1405842,43.3619711 L50.6272019,29.5155019 L57.2987294,29.5155019 L59.5906984,85.3361533 L3.52991565,85.3361533 Z M15.581001,20.4368164 C15.4277164,16.0202913 17.0140899,11.83712 20.05545,8.65614114 C23.094377,5.47516232 27.181965,3.72378171 31.5615236,3.72378171 C35.938649,3.72378171 40.026237,5.47516232 43.0651641,8.65614114 C46.1065242,11.83712 47.6928976,16.0202913 47.5396131,20.4392727 L47.3425329,26.0766058 L15.7780811,26.0766058 L15.581001,20.4368164 Z M60.6344932,27.7248196 C60.5955638,26.8036867 59.8461726,26.0766058 58.9337646,26.0766058 L50.7488563,26.0766058 L50.9410702,20.5620904 C51.1308511,15.2023254 49.2038453,10.1274974 45.5177169,6.27102112 C41.8267222,2.40963216 36.8705218,0.284885687 31.5615236,0.284885687 C26.2500923,0.284885687 21.2938918,2.40963216 17.6028972,6.27102112 C13.9167687,10.1274974 11.989763,15.2023254 12.1795438,20.5596341 L12.3717578,26.0766058 L4.18928253,26.0766058 C3.27687449,26.0766058 2.52505027,26.8036867 2.48612086,27.7248196 L0.0530327709,86.9843671 C0.0335680662,87.4510744 0.206317321,87.9079563 0.527484949,88.2469332 C0.846219489,88.5834537 1.29147461,88.7750494 1.75619444,88.7750494 L61.3668527,88.7750494 C61.8291394,88.7750494 62.2743946,88.5834537 62.5931291,88.2469332 C62.9142967,87.9079563 63.087046,87.4510744 63.0675813,86.9843671 L60.6344932,27.7248196 Z" id="Fill-1" stroke="#FFFFFF" stroke-width="0.6"></path>
                        <path d="M17.3311212,58.2504257 C17.3311212,59.3606979 18.2216315,60.2597236 19.3189542,60.2597236 C20.4162769,60.2597236 21.3067872,59.3606979 21.3067872,58.2504257 C21.3067872,57.1426099 20.4162769,56.2435843 19.3189542,56.2435843 C18.2216315,56.2435843 17.3311212,57.1426099 17.3311212,58.2504257 Z" id="Fill-6"></path>
                        <path d="M41.8140702,58.2504257 C41.8140702,59.3606979 42.7045804,60.2597236 43.8019031,60.2597236 C44.8992259,60.2597236 45.7897361,59.3606979 45.7897361,58.2504257 C45.7897361,57.1426099 44.8992259,56.2435843 43.8019031,56.2435843 C42.7045804,56.2435843 41.8140702,57.1426099 41.8140702,58.2504257 Z" id="Fill-8"></path>
                    </g>
                </g>
            </g>
        </g>
    </g>
</svg>