<?xml version="1.0" encoding="UTF-8"?>
<svg width="140px" height="130px" viewBox="0 0 140 130" version="1.1" xmlns="http://www.w3.org/2000/svg" xmlns:xlink="http://www.w3.org/1999/xlink">
    <!-- Generator: Sketch 42 (36781) - http://www.bohemiancoding.com/sketch -->
    <title>Group 12</title>
    <desc>Created with Sketch.</desc>
    <defs></defs>
    <g id="Page-1" stroke="none" stroke-width="1" fill="none" fill-rule="evenodd">
        <g id="Home-Page---v2---Desktop-Menu" transform="translate(-92.000000, 0.000000)">
            <g id="Page-1" transform="translate(92.000000, -20.000000)">
                <g id="Group-12">
                    <polygon id="Fill-1" fill="#15407D" points="0 150 140 150 140 0 0 0"></polygon>
                    <g id="Group-268" transform="translate(8.772555, 59.449942)" fill="#FEFEFE">
                        <path d="M64.0220574,70.0955585 C60.647906,69.1156275 57.7120854,67.0405381 54.7080247,65.2882844 C51.2043665,63.2459752 47.3888956,61.4231944 43.3442972,63.0299236 C39.8954303,64.4002375 37.0871242,67.9861987 39.4097796,71.538883 C42.0143615,75.523174 47.9323262,74.3331514 51.9405631,74.3078212 C52.243908,74.3063312 52.5477509,74.5521831 52.8476091,74.5501964 C48.8219386,74.5760233 44.5208171,75.1933848 40.805465,73.251403 C38.8658509,72.2367051 37.5244588,70.4193877 37.6181023,68.1794036 C37.718221,65.7780016 39.908381,64.073925 41.8639344,63.0517771 C45.0647458,61.3799841 48.8010183,62.2839244 51.9420574,63.6259282 C56.3796592,65.5212229 60.1303767,68.9432828 64.8055738,70.3011801 C64.8509012,70.3135968 64.2018727,70.1491989 64.0220574,70.0955585" id="Fill-2"></path>
                        <path d="M24.6108831,65.9330124 C20.4342873,65.5456094 16.3483464,63.3056254 14.8844209,59.1956768 C14.1173419,57.0416167 14.5452126,54.6362413 16.052473,52.9088212 C17.3166591,51.4630133 19.2981138,51.2544117 21.0723576,51.641318 C22.5068949,51.9532271 23.8562566,52.4702611 25.0925489,53.2644373 C27.1203272,54.5657141 28.1792947,56.4918024 29.5256678,58.4104406 C32.613908,62.8054781 36.6480462,66.4788534 41.4950889,68.8469784 C45.027139,70.5734052 48.9691282,71.5473761 52.9031476,71.5473761 C53.2064925,71.5473761 53.5083431,71.790248 53.8096955,71.790248 C49.3312492,71.790248 44.6246716,70.5227448 40.5895372,68.6060932 C35.7126083,66.2891252 31.7322652,62.5218793 28.6221085,58.1680654 C27.2378796,56.2325404 26.2048135,54.3824427 24.186001,53.0225588 C22.4600732,51.8583631 20.4268158,51.2693118 18.4299198,52.0913015 C16.409115,52.921238 15.3989616,55.3107199 15.4124104,57.3629625 C15.4248629,59.7097307 16.8105862,61.8712409 18.5051334,63.3930394 C19.9516253,64.6928261 21.7702002,65.5108425 23.7053314,65.6911339 C24.012163,65.7184508 24.3050477,65.9042056 24.6108831,65.9330124" id="Fill-4"></path>
                        <path d="M4.30271549,66.132823 C3.66414712,65.5308583 3.08634735,64.9904808 2.22612304,65.2879864 C1.31060927,65.6048622 1.39030579,66.8673987 1.49590368,67.6089278 C1.83511199,69.9715895 4.4421844,70.3704159 6.34244829,70.5189204 C12.2977707,70.9852941 18.0937001,68.6280957 23.8607396,67.5215138 C33.8920409,65.5974122 44.6595388,65.443941 53.4635138,71.3096199 C53.2194432,71.1477053 52.8055194,71.2331326 52.5569659,71.068238 C49.5444374,69.0597024 46.2315527,67.6521381 42.6551714,67.0079565 C39.6531031,66.4665856 36.5778136,66.4154285 33.5418743,66.5937333 C27.2936672,66.9597794 21.3219073,68.574952 15.260987,69.9879796 C11.286123,70.9142702 6.23734851,71.5758353 2.39498004,69.6750772 C0.964427511,68.9688117 -0.747055253,65.4345042 1.67870757,64.9492571 C2.84227676,64.7178087 4.44915784,65.659496 5.2087653,66.3751982 C5.01101831,66.1894434 4.5039492,66.3235445 4.30271549,66.132823" id="Fill-6"></path>
                        <path d="M28.5898812,63.4986315 C28.3159245,63.384894 27.6873182,63.3764506 27.1727775,63.5964756 C26.6696932,63.8135206 26.3220172,64.2719475 26.0903991,64.7512346 C25.544478,65.88116 25.7203084,67.2882276 26.1591374,68.4176564 C26.4022118,69.0474347 26.789238,69.6096657 27.2519759,70.0954095 C27.4950503,70.3506981 27.7774748,70.5627764 28.067869,70.7564779 C28.5639799,71.0872605 28.8100429,71.1786479 29.1372967,71.2322883 C31.1805162,71.5625742 33.5295712,70.7902515 35.004953,69.3658005 C38.0239568,66.4518345 35.9737638,61.5437363 33.3288356,59.1934914 C28.5639799,54.9588785 22.3979598,59.0390269 20.4160069,63.9948054 C18.6497328,68.4067297 21.0236929,74.4825002 24.5258568,77.407393 C29.0072918,81.1493087 34.4824427,78.2060392 38.4896833,75.3650838 C42.5118671,72.5112149 46.1843823,69.3042133 51.1763731,68.3461359 C54.461364,67.714371 59.5564621,69.1075318 59.0404272,73.3873417 C58.5831684,77.1883613 53.6549349,78.7901237 50.9073973,76.3653782 C51.1141102,76.548153 51.6002589,76.420012 51.8114547,76.6067601 C52.6856259,77.3790827 53.3974155,77.4833836 54.514163,77.1759445 C55.6074996,76.8769488 56.5364621,76.0996595 57.2223503,75.226016 C58.7196487,73.3237679 58.2793254,70.9169025 56.5533977,69.3320269 C54.8558618,67.7754614 52.1571384,68.4628534 50.1911249,69.0593547 C47.8983556,69.7556868 45.8750602,70.9183925 43.9234917,72.2852298 C39.9560993,75.0645981 35.9837259,78.9788585 30.9105443,79.4189086 C29.3450058,79.5549963 27.7530678,79.1546799 26.2841613,78.6396325 C23.8389725,77.7779092 22.1125466,75.9446983 20.8652961,73.7360044 C19.6265133,71.541714 18.9077503,68.9565439 18.9570625,66.4354444 C19.0073709,63.8820612 20.4110259,61.4488723 22.1912469,59.6901619 C25.3751229,56.5432575 30.3511743,56.4960738 33.856825,59.1259442 C36.7991209,61.3326514 38.7332558,66.0823116 36.2148458,69.2719297 C34.1900561,71.8382263 29.8645275,72.1670222 27.1618192,70.5145994 C25.2769965,69.3618271 24.3425548,66.6932164 25.1325466,64.6295503 C25.8712337,62.6994887 27.9677503,63.0998051 29.4949349,63.7405101 C29.211016,63.6208125 28.8762906,63.6183291 28.5898812,63.4986315" id="Fill-8"></path>
                        <path d="M60.3167171,70.0955585 C63.6908685,69.1156275 66.626191,67.0405381 69.6302517,65.2882844 C73.134408,63.2459752 76.9498789,61.4231944 80.9944773,63.0299236 C84.4438423,64.4002375 87.2516503,67.9861987 84.929493,71.538883 C82.324413,75.523174 76.4064483,74.3331514 72.3977133,74.3078212 C72.0943685,74.3063312 71.7910236,74.5521831 71.4921616,74.5501964 C75.5168359,74.5760233 79.8179574,75.1933848 83.5333096,73.251403 C85.4729236,72.2367051 86.8138176,70.4193877 86.7206723,68.1794036 C86.6205535,65.7780016 84.4303935,64.073925 82.4753383,63.0517771 C79.2740287,61.3799841 75.5377562,62.2839244 72.3967171,63.6259282 C67.9596134,65.5212229 64.2083978,68.9432828 59.5332007,70.3011801 C59.4873752,70.3135968 60.1369019,70.1491989 60.3167171,70.0955585" id="Fill-10"></path>
                        <path d="M99.7281405,65.9330124 C103.905234,65.5456094 107.990677,63.3056254 109.454105,59.1956768 C110.22218,57.0416167 109.793313,54.6362413 108.286052,52.9088212 C107.022365,51.4630133 105.04091,51.2544117 103.266168,51.641318 C101.833125,51.9532271 100.482269,52.4702611 99.2464747,53.2644373 C97.2181983,54.5657141 96.1597288,56.4918024 94.8128577,58.4104406 C91.7256137,62.8054781 87.6909774,66.4788534 82.8434366,68.8469784 C79.3113864,70.5734052 75.3693973,71.5473761 71.435876,71.5473761 C71.1325311,71.5473761 70.8301824,71.790248 70.5293281,71.790248 C75.0072763,71.790248 79.714352,70.5227448 83.7494864,68.6060932 C88.6259172,66.2891252 92.6067584,62.5218793 95.7174132,58.1680654 C97.101144,56.2325404 98.1342101,54.3824427 100.152524,53.0225588 C101.878452,51.8583631 103.912208,51.2693118 105.908606,52.0913015 C107.929909,52.921238 108.939564,55.3107199 108.926613,57.3629625 C108.914161,59.7097307 107.528437,61.8712409 105.833392,63.3930394 C104.387398,64.6928261 102.568325,65.5108425 100.63419,65.6911339 C100.326363,65.7184508 100.03298,65.9042056 99.7281405,65.9330124" id="Fill-12"></path>
                        <path d="M120.036059,66.132823 C120.675126,65.5308583 121.252427,64.9904808 122.112651,65.2879864 C123.028165,65.6048622 122.948469,66.8673987 122.842871,67.6089278 C122.503663,69.9715895 119.897088,70.3704159 117.996824,70.5189204 C112.041004,70.9852941 106.245074,68.6280957 100.478035,67.5215138 C90.4467336,65.5974122 79.6792357,65.443941 70.8752608,71.3096199 C71.1193314,71.1477053 71.5327571,71.2331326 71.7823068,71.068238 C74.7948352,69.0597024 78.1072218,67.6521381 81.6836032,67.0079565 C84.6851733,66.4665856 87.7604628,66.4154285 90.7969002,66.5937333 C97.0451074,66.9597794 103.016867,68.574952 109.077289,69.9879796 C113.05315,70.9142702 118.101924,71.5758353 121.943794,69.6750772 C123.374347,68.9688117 125.08583,65.4345042 122.659569,64.9492571 C121.496498,64.7178087 119.890115,65.659496 119.130009,66.3751982 C119.327756,66.1894434 119.834327,66.3235445 120.036059,66.132823" id="Fill-14"></path>
                        <path d="M95.7489431,63.4986315 C96.023398,63.384894 96.6515062,63.3764506 97.1660468,63.5964756 C97.6696292,63.8135206 98.0163091,64.2719475 98.2484252,64.7512346 C98.7943464,65.88116 98.6185159,67.2882276 98.1801851,68.4176564 C97.9366126,69.0474347 97.5490882,69.6096657 97.0868484,70.0954095 C96.843774,70.3506981 96.5613495,70.5627764 96.2709553,70.7564779 C95.7748445,71.0872605 95.5287815,71.1786479 95.2015276,71.2322883 C93.1583081,71.5625742 90.808257,70.7902515 89.3338714,69.3658005 C86.3148676,66.4518345 88.3645624,61.5437363 91.0104869,59.1934914 C95.7748445,54.9588785 101.941363,59.0390269 103.923316,63.9948054 C105.688593,68.4067297 103.31563,74.4825002 99.8129675,77.407393 C95.3315326,81.1493087 89.8568798,78.2060392 85.8486429,75.3650838 C81.8269573,72.5112149 78.154442,69.3042133 73.1629494,68.3461359 C69.8774603,67.714371 64.7823622,69.1075318 65.2983972,73.3873417 C65.7551578,77.1883613 70.6843876,78.7901237 73.431427,76.3653782 C73.2252123,76.548153 72.7385654,76.420012 72.5268715,76.6067601 C71.6527003,77.3790827 70.9414089,77.4833836 69.8241633,77.1759445 C68.7313248,76.8769488 67.8018641,76.0996595 67.1169721,75.226016 C65.6191757,73.3237679 66.0594989,70.9169025 67.7854267,69.3320269 C69.4829626,67.7754614 72.181686,68.4628534 74.1476995,69.0593547 C76.4409668,69.7556868 78.4637641,70.9183925 80.4153327,72.2852298 C84.3827251,75.0645981 88.3550985,78.9788585 93.4282801,79.4189086 C94.9943167,79.5549963 96.5857566,79.1546799 98.054663,78.6396325 C100.499852,77.7779092 102.226278,75.9446983 103.473528,73.7360044 C104.712311,71.541714 105.430576,68.9565439 105.381762,66.4354444 C105.331453,63.8820612 103.928297,61.4488723 102.147577,59.6901619 C98.9641996,56.5432575 93.98765,56.4960738 90.4829955,59.1259442 C87.5397034,61.3326514 85.6055685,66.0823116 88.1239786,69.2719297 C90.1492664,71.8382263 94.474795,72.1670222 97.1770051,70.5145994 C99.0613297,69.3618271 99.9957714,66.6932164 99.2062778,64.6295503 C98.4670925,62.6994887 96.3710741,63.0998051 94.8438895,63.7405101 C95.1283064,63.6208125 95.4625337,63.6183291 95.7489431,63.4986315" id="Fill-16"></path>
                        <polygon id="Fill-18" points="37.7023813 33.1969117 37.1738938 34.3283271 31.0457295 34.3347839 31.0297902 17.9391931 33.551687 17.9367097 33.5666301 33.200885"></polygon>
                        <path d="M45.6968389,33.9933229 C44.3519601,34.3300655 43.5450328,34.4989335 43.2765552,34.4989335 C42.6877971,34.4994301 42.39292,33.8458117 42.3919238,32.5380782 L42.387939,28.515047 C41.1775481,28.7171919 40.5733488,29.6151722 40.5748431,31.2074979 C40.5763375,32.5817852 40.9045875,33.2776206 41.5605895,33.2935141 C41.7623213,33.2935141 41.9804905,33.2512971 42.2160934,33.1673598 L41.963555,34.3991027 C41.5237298,34.5505872 41.0246304,34.6265778 40.4667547,34.6270745 C39.6882194,34.6280678 39.0795372,34.2933119 38.6392139,33.6233033 C38.2491991,33.0536222 38.0544407,32.3667269 38.0534445,31.561624 C38.0519502,30.3547146 38.4738436,29.3236266 39.3186268,28.4673666 C40.1126033,27.6786538 41.1352093,27.1750299 42.3864447,26.9559982 L42.3854485,25.9502404 C42.3849504,25.2961253 42.325178,24.8272683 42.2076256,24.5421794 C42.0218331,24.055939 41.6602101,23.8135638 41.1222586,23.8140604 C40.4667547,23.8145571 39.6513597,24.0584223 38.6770698,24.5456561 L38.8269988,23.0869348 C39.7340449,22.5162603 40.6246535,22.2296814 41.4993228,22.2286881 C43.7014372,22.2271981 44.8042378,23.6342657 44.8067284,26.4503876 L44.8127056,32.1839521 C44.8132037,33.0387221 45.1080808,33.6421768 45.6968389,33.9933229" id="Fill-20"></path>
                        <polygon id="Fill-22" points="62.466481 33.8764066 59.9450823 34.5578386 58.5982111 23.8719722 56.1873914 34.0840149 54.4226116 34.563302 51.814543 23.9037591 50.6898258 34.3154634 49.050568 34.3174501 50.6499776 19.3284302 50.3969411 18.2725087 52.9935534 17.6164069 55.7286383 29.1808835 58.013936 19.3969708 57.811208 18.2650586 60.4327254 17.6089569"></polygon>
                        <path d="M66.5267198,34.2998679 L64.0556296,34.3028479 L64.0441732,22.5590733 L66.5142672,21.9283018 L66.5267198,34.2998679 Z M66.5112786,18.6090526 C66.5117767,19.0784063 66.4026921,19.5060396 66.1845228,19.8914559 C65.9160452,20.3618029 65.5718558,20.5962314 65.1519548,20.5967281 C64.7644305,20.5972248 64.4366785,20.3712397 64.1677028,19.9187728 C63.9480393,19.5338532 63.8389546,19.1231066 63.8384565,18.6870299 C63.8384565,18.2340664 63.9465449,17.8069297 64.1647142,17.4041299 C64.4167544,16.9347763 64.752476,16.6993545 65.1728751,16.6988578 C65.5768369,16.6988578 65.9130566,16.9248429 66.1825304,17.3773097 C66.4011978,17.7627261 66.5107805,18.1729759 66.5112786,18.6090526 L66.5112786,18.6090526 Z" id="Fill-24"></path>
                        <polygon id="Fill-26" points="70.9651186 34.2954972 68.4432218 34.2979806 68.4257882 16.6204832 70.9466888 15.9897116"></polygon>
                        <polygon id="Fill-28" points="75.2517952 34.2916232 72.7298984 34.2941065 72.7124648 16.6161125 75.2338634 15.9853409"></polygon>
                        <path d="M82.407646,28.4756113 C82.4046574,25.1230853 81.8731813,23.4473189 80.8142138,23.4483122 C79.7208771,23.4493056 79.1764503,25.0759016 79.1794389,28.3281002 C79.1829256,31.6811229 79.7303411,33.3568893 80.8236777,33.3553992 C81.8826452,33.3544059 82.4111328,31.7283066 82.407646,28.4756113 M85.0804681,28.2973066 C85.0819624,29.8727455 84.7721422,31.2390861 84.1515055,32.3973218 C83.3794455,33.8227662 82.2706677,34.5359851 80.825172,34.5374751 C79.3786802,34.5389651 78.268408,33.8610098 77.4938575,32.5036093 C76.8707303,31.3980207 76.5584196,30.0654537 76.5569253,28.5064049 C76.555431,26.9642429 76.8821867,25.5889622 77.5366944,24.3820528 C78.3251918,22.9223382 79.426,22.1922325 80.8381227,22.1907425 C82.2328118,22.1892525 83.3266465,22.8925379 84.1186307,24.2996055 C84.7581953,25.4394644 85.0789738,26.7715347 85.0804681,28.2973066" id="Fill-30"></path>
                        <path d="M93.4843665,34.2736437 L90.9624697,34.2761271 L90.9614735,33.2952028 C90.1550444,34.1008024 89.3316797,34.5040988 88.4913795,34.5050922 C87.5494663,34.5060855 86.8765288,33.8946841 86.4720689,32.6708879 C86.2015989,31.8667783 86.0666129,30.8694639 86.0656167,29.6789447 L86.0586432,22.7384707 L88.5800419,22.1076992 L88.5875134,29.7519552 C88.5895059,31.6467533 88.9262237,32.5934073 89.598663,32.592414 C90.0529332,32.5919173 90.5062072,32.2735515 90.9599792,31.6353299 L90.9510134,22.7340007 L93.472412,22.1027325 L93.4843665,34.2736437 Z" id="Fill-32"></path>
                        <path d="M46.750925,38.9740839 C46.750925,39.3585069 46.6393498,39.6629659 46.4166977,39.8869643 C46.1940455,40.1109628 45.892195,40.2232103 45.511146,40.2232103 C45.2715583,40.2232103 45.0464156,40.1824833 44.8367142,40.101526 L44.7535309,39.8581575 C44.8944941,39.8795143 45.0249972,39.890441 45.1450401,39.890441 C45.5903444,39.890441 45.8129965,39.5944254 45.8129965,39.0033875 C45.8129965,38.4202963 45.506663,38.1287507 44.8944941,38.1287507 L44.6633742,38.1287507 L44.6633742,42.0102308 L43.8220778,42.0102308 L43.8220778,37.8342251 L45.5624506,37.8342251 C45.9006627,37.8342251 46.1810948,37.9365392 46.4042451,38.1416641 C46.635365,38.3597025 46.750925,38.6368446 46.750925,38.9740839" id="Fill-34"></path>
                        <path d="M49.5578862,41.9652822 L48.765902,42.0551795 C48.6722586,42.0636229 48.6000336,42.0144525 48.5492271,41.9081651 C48.5108732,41.817771 48.4914471,41.7129735 48.4914471,41.5937726 L48.4914471,40.4727872 C47.9136474,40.5030841 47.6242494,40.7628428 47.6242494,41.2520633 C47.6242494,41.5480789 47.7507676,41.6965834 48.003306,41.6965834 C48.1487521,41.6965834 48.288221,41.6707565 48.4207165,41.6195995 L48.3504839,41.9528654 C48.1059152,42.0462395 47.8623427,42.0934232 47.617774,42.0934232 C47.3737034,42.0934232 47.1704773,42.0293527 47.0075976,41.9012117 C46.8282804,41.7646273 46.7381237,41.5768858 46.7381237,41.3374906 C46.7381237,40.9788945 46.9508138,40.6908256 47.376194,40.4727872 C47.6939838,40.3108726 48.066067,40.2125319 48.4914471,40.1782616 L48.4914471,39.9478065 C48.4914471,39.5251399 48.2897153,39.3135582 47.8852555,39.3135582 C47.6312228,39.3135582 47.3323609,39.3671986 46.9886696,39.4734861 L47.0334989,39.1407169 C47.3677262,39.0041325 47.7119156,38.935592 48.0675613,38.935592 C48.9242989,38.935592 49.3521696,39.2981614 49.3521696,40.0223071 L49.3521696,41.3965944 C49.3521696,41.7209203 49.4209078,41.9101517 49.5578862,41.9652822" id="Fill-36"></path>
                        <path d="M52.313493,39.0512169 L52.1077763,39.7107953 C52.0136348,39.6084812 51.8960825,39.5573241 51.7546211,39.5573241 C51.493615,39.5528541 51.2794306,39.7063253 51.112068,40.0177377 L51.112068,42.0103798 L50.2513455,42.0103798 L50.2513455,39.0512169 L51.112068,38.9101624 L51.112068,39.5374573 C51.184791,39.3755427 51.285906,39.2389583 51.4139185,39.1277041 C51.5638476,38.9955898 51.7222444,38.9295326 51.8896071,38.9295326 C52.0519888,38.9295326 52.1934501,38.9702596 52.313493,39.0512169" id="Fill-38"></path>
                        <path d="M54.3496893,40.0760965 L54.3496893,39.9732857 C54.3496893,39.4781052 54.1878057,39.2302666 53.8650348,39.2302666 C53.6667897,39.2302666 53.5113815,39.3266207 53.3998064,39.5183355 C53.3091516,39.6728 53.2598394,39.8585548 53.2508735,40.0760965 L54.3496893,40.0760965 Z M55.2104117,40.3706221 L53.2508735,40.3706221 L53.2508735,40.4664795 C53.2508735,41.2825092 53.6045268,41.689779 54.3108372,41.689779 C54.5165539,41.689779 54.758632,41.6470654 55.0365736,41.561638 L54.9404397,41.9137774 C54.5593907,42.033475 54.1673835,42.0871154 53.764916,42.074202 C53.3156269,42.0612886 52.9694452,41.9207308 52.7278651,41.6515354 C52.4857869,41.3828366 52.3647478,41.0302006 52.3647478,40.5946205 C52.3647478,40.1287436 52.4997338,39.7428306 52.7692077,39.4353915 C53.0605981,39.1021256 53.44613,38.935741 53.9253053,38.935741 C54.7820429,38.935741 55.2104117,39.4140347 55.2104117,40.3706221 L55.2104117,40.3706221 Z" id="Fill-40"></path>
                        <path d="M58.531017,42.0103798 L57.6702946,42.0103798 L57.6702946,40.2506762 C57.6702946,39.7242054 57.5158826,39.46097 57.2075567,39.46097 C56.9978552,39.46097 56.8075797,39.542424 56.6362322,39.7048353 L56.6362322,42.0103798 L55.7755098,42.0103798 L55.7755098,39.0512169 L56.6362322,38.9101624 L56.6362322,39.3517025 C56.9819159,39.0830038 57.329592,38.9484061 57.6797585,38.9484061 C57.9865901,38.9484061 58.212729,39.0815138 58.3581752,39.3467358 C58.473237,39.5563308 58.531017,39.8260229 58.531017,40.1553154 L58.531017,42.0103798 Z" id="Fill-42"></path>
                        <path d="M61.1387867,41.5937229 L61.0615807,41.946359 C60.6416797,42.0312897 60.3313614,42.0745 60.1301277,42.0745 C59.6549372,42.0745 59.4173419,41.813748 59.4173419,41.2927406 L59.4173419,39.2683115 L59.0253347,39.2683115 L59.0253347,38.9936527 L59.4173419,38.9936527 L59.4173419,38.2824205 L60.2775662,38.1418628 L60.2775662,38.9936527 L61.029204,38.9936527 L61.029204,39.2683115 L60.2775662,39.2683115 L60.2775662,41.0300019 C60.2775662,41.2480403 60.3034676,41.3955514 60.3552703,41.4725353 C60.4235105,41.5748495 60.5624813,41.6255099 60.7726809,41.6255099 C60.8792749,41.6255099 61.0018083,41.6155764 61.1387867,41.5937229" id="Fill-44"></path>
                        <path d="M62.3268626,37.5907572 C62.1296137,37.9533267 62.0314874,38.2056353 62.0314874,38.346193 C62.0314874,38.6198585 62.1236365,38.8016399 62.3074366,38.8910406 L61.8322461,39.3196673 C61.6011262,39.2089097 61.4855662,39.0405384 61.4855662,38.8140567 C61.4855662,38.6173751 61.5433462,38.3913901 61.6589062,38.1351081 C61.7744661,37.8788261 61.9049692,37.6781712 62.0504153,37.5331434 L62.3268626,37.5907572 Z" id="Fill-46"></path>
                        <path d="M65.0178156,41.0941717 C65.0178156,41.4319077 64.8743619,41.687693 64.5879525,41.8630177 C64.3523497,42.0080455 64.0544839,42.0805594 63.6948534,42.0805594 C63.4338473,42.0805594 63.1399664,42.025429 62.815203,41.9136781 L62.7245482,41.5615387 C63.0074709,41.6896797 63.2943784,41.7537502 63.5857688,41.7537502 C63.7486485,41.7537502 63.8871212,41.7199766 64.0031793,41.6514361 C64.1446406,41.5660087 64.2153713,41.4507812 64.2153713,41.3057534 C64.2153713,41.1348987 64.0868606,40.9789442 63.8298394,40.8378897 C63.5897536,40.7186888 63.3501659,40.5989912 63.1105783,40.4792936 C62.853557,40.308439 62.7245482,40.1013273 62.7245482,39.8584555 C62.7245482,39.5549898 62.8575418,39.3200646 63.1230308,39.15368 C63.3501659,39.0086522 63.6216322,38.9356416 63.938924,38.9356416 C64.204413,38.9356416 64.4484836,38.9917654 64.6711357,39.1020262 L64.7672697,39.461119 C64.4848451,39.328508 64.2402764,39.2624508 64.0350579,39.2624508 C63.8980795,39.2624508 63.7825195,39.2922511 63.688378,39.3518515 C63.5768029,39.4203921 63.5215134,39.5207195 63.5215134,39.6533305 C63.5215134,39.7809749 63.6500241,39.9091159 63.9065473,40.0372568 C64.3264483,40.2423818 64.5685265,40.3685361 64.6327818,40.4152231 C64.889305,40.5989912 65.0178156,40.825473 65.0178156,41.0941717" id="Fill-48"></path>
                        <path d="M70.1885258,38.9740839 C70.1885258,39.3585069 70.0769507,39.6629659 69.8547966,39.8869643 C69.6316464,40.1109628 69.3297958,40.2232103 68.9487468,40.2232103 C68.7091592,40.2232103 68.4845146,40.1824833 68.274315,40.101526 L68.1911318,39.8581575 C68.332095,39.8795143 68.4625981,39.890441 68.5826409,39.890441 C69.0279452,39.890441 69.2505974,39.5944254 69.2505974,39.0033875 C69.2505974,38.4202963 68.9442639,38.1287507 68.332095,38.1287507 L68.1009751,38.1287507 L68.1009751,42.0102308 L67.2596787,42.0102308 L67.2596787,37.8342251 L69.0000515,37.8342251 C69.3382636,37.8342251 69.6186957,37.9365392 69.841846,38.1416641 C70.0729659,38.3597025 70.1885258,38.6368446 70.1885258,38.9740839" id="Fill-50"></path>
                        <path d="M72.8220475,39.0512169 L72.6163309,39.7107953 C72.5221893,39.6084812 72.404637,39.5573241 72.2631757,39.5573241 C72.0021696,39.5528541 71.7874871,39.7063253 71.6206225,40.0177377 L71.6206225,42.0103798 L70.7603982,42.0103798 L70.7603982,39.0512169 L71.6206225,38.9101624 L71.6206225,39.5374573 C71.6933455,39.3755427 71.7944605,39.2389583 71.9229711,39.1277041 C72.0724021,38.9955898 72.2307989,38.9295326 72.3981616,38.9295326 C72.5610414,38.9295326 72.7020046,38.9702596 72.8220475,39.0512169" id="Fill-52"></path>
                        <path d="M74.1001306,42.0103798 L73.2394082,42.0103798 L73.2394082,39.0512169 L74.1001306,38.9101624 L74.1001306,42.0103798 Z M74.1584087,37.9749318 C74.1584087,38.1115162 74.1090965,38.2272404 74.010472,38.3211112 C73.9118476,38.4149819 73.7942952,38.4616689 73.6573168,38.4616689 C73.5288062,38.4616689 73.4162349,38.4149819 73.3196028,38.3211112 C73.2234689,38.2272404 73.175651,38.1159862 73.175651,37.9878453 C73.175651,37.8467908 73.2234689,37.7295766 73.3196028,37.6352092 C73.4162349,37.5418351 73.5347834,37.4946514 73.6762448,37.4946514 C73.8047554,37.4946514 73.9173267,37.5428285 74.0134607,37.6386859 C74.1095946,37.73504 74.1584087,37.8467908 74.1584087,37.9749318 L74.1584087,37.9749318 Z" id="Fill-54"></path>
                        <path d="M77.6265024,42.0103798 L76.7652819,42.0103798 L76.7652819,39.4286865 C76.5899495,39.3303457 76.4191001,39.281672 76.2517374,39.281672 C76.0116517,39.281672 75.8303421,39.4331565 75.7058163,39.7351322 C75.6156596,39.9611173 75.5708303,40.2144192 75.5708303,40.4955347 C75.5708303,40.8104239 75.6201425,41.081606 75.7182688,41.3070944 C75.8512624,41.6090701 76.0549866,41.7625413 76.3289434,41.7665146 C76.4783744,41.7665146 76.6029002,41.7431711 76.7015247,41.6964841 L76.6243187,42.0034265 C76.4743896,42.0595502 76.2646881,42.0868671 75.9947161,42.0868671 C75.5663474,42.0868671 75.2306258,41.9398526 74.9860571,41.6463204 C74.763903,41.3736482 74.6523279,41.0195221 74.6523279,40.5849354 C74.6523279,40.1334619 74.7743632,39.7540056 75.0184338,39.4470633 C75.2839228,39.1147907 75.6390704,38.9484061 76.0848728,38.9484061 C76.3289434,38.9484061 76.5560785,39.0020465 76.7652819,39.1088306 L76.7652819,37.4881947 L77.6265024,37.3471403 L77.6265024,42.0103798 Z" id="Fill-56"></path>
                        <path d="M80.111938,40.0760965 L80.111938,39.9732857 C80.111938,39.4781052 79.9500544,39.2302666 79.6272835,39.2302666 C79.4290384,39.2302666 79.2741283,39.3266207 79.1620551,39.5183355 C79.0718984,39.6728 79.0220881,39.8585548 79.0136203,40.0760965 L80.111938,40.0760965 Z M80.9726604,40.3706221 L79.0136203,40.3706221 L79.0136203,40.4664795 C79.0136203,41.2825092 79.3667755,41.689779 80.073584,41.689779 C80.2788026,41.689779 80.5208808,41.6470654 80.7993205,41.561638 L80.7031865,41.9137774 C80.3216395,42.033475 79.9296322,42.0871154 79.5271648,42.074202 C79.0778756,42.0612886 78.7316939,41.9207308 78.4906119,41.6515354 C78.2480356,41.3828366 78.1269965,41.0302006 78.1269965,40.5946205 C78.1269965,40.1287436 78.2619825,39.7428306 78.5319545,39.4353915 C78.8233449,39.1021256 79.2083787,38.935741 79.6880521,38.935741 C80.5442916,38.935741 80.9726604,39.4140347 80.9726604,40.3706221 L80.9726604,40.3706221 Z" id="Fill-58"></path>
                        <path d="M64.3676912,60.7004891 C64.2710592,60.5430446 64.1769177,60.3890767 64.0837724,60.2440489 C63.7480508,59.7086381 63.1682586,59.0719065 62.3075362,59.0719065 C62.1551166,59.0719065 61.9962217,59.0922699 61.8353343,59.1320036 C61.6908844,59.7548284 61.7446795,60.3672232 61.9997084,61.0024648 C62.2228587,61.5547624 62.740886,62.0201427 63.1518212,62.271458 C63.7520356,62.6519076 64.4493802,62.8520658 65.1696375,62.8520658 C65.5168154,62.8520658 65.8600086,62.8058755 66.1922434,62.7154814 C65.408727,62.4030757 64.858821,61.504102 64.3676912,60.7004891" id="Fill-60"></path>
                        <path d="M62.0131074,59.0611287 C61.1558717,59.0611287 60.5701023,59.7072971 60.2289015,60.2491646 C60.0700066,60.4721697 59.9290434,60.7110682 59.7806086,60.9648668 C59.3447683,61.7073893 58.8959772,62.4717652 58.040734,62.702717 C58.422281,62.8159579 58.7988471,62.873075 59.1634587,62.873075 C59.8483507,62.873075 60.5118242,62.6773868 61.191237,62.2755804 C61.5981874,62.0192984 62.1122299,61.5459714 62.3269124,60.9882104 C62.5704849,60.3499887 62.6148161,59.7370973 62.4618984,59.1167558 C62.3094788,59.0795055 62.1585535,59.0611287 62.0131074,59.0611287" id="Fill-62"></path>
                        <path d="M62.624828,56.6509853 C62.7712703,57.2777835 63.0865697,57.8102143 63.5881597,58.2770846 C64.689964,57.9055751 64.9972937,56.8988239 65.1317816,56.1687182 L65.1646564,55.9784934 C65.331521,54.9950858 65.5541732,53.6853656 66.5399195,53.0247938 C65.1930483,53.093831 63.7355982,53.8736037 63.0387518,54.9081684 C62.6651743,55.4793395 62.5062794,56.1468647 62.624828,56.6509853" id="Fill-64"></path>
                        <path d="M68.6236846,59.8177566 C68.4842157,59.5589912 68.3522184,59.313636 68.2042817,59.0901343 C67.8705525,58.5134998 67.2897641,57.8320678 66.3986574,57.8320678 C66.2736335,57.8320678 66.1436286,57.8454779 66.0121293,57.8722981 C65.8362989,58.4876729 65.8582154,59.1020544 66.0788751,59.7482227 C66.2716411,60.3119438 66.76825,60.8041443 67.1687251,61.0768164 C67.8715487,61.5282899 68.5698895,61.7488116 69.3011051,61.7488116 C69.623876,61.7488116 69.9590995,61.7046079 70.2988059,61.6171939 C69.4525285,61.3554485 69.0321293,60.5746825 68.6236846,59.8177566" id="Fill-66"></path>
                        <path d="M67.6980096,53.8810041 C67.2621692,54.3652579 67.0061442,55.0168896 67.0494791,55.536407 C67.1002857,56.1825753 67.3319037,56.7542431 67.7562876,57.2836939 C68.9502411,57.0750923 69.3825948,56.0221508 69.5345162,55.406776 C69.5728702,55.2607548 69.6092317,55.109767 69.6470876,54.9543091 C69.8787056,54.000205 70.1382174,52.9323634 70.8524974,52.3999326 L70.8445278,52.3999326 C69.8094692,52.3999326 68.6334475,52.9532236 67.6980096,53.8810041" id="Fill-68"></path>
                        <path d="M72.6128939,58.6920032 L72.4789042,58.4853882 C71.8916404,57.597838 71.2371328,57.1662313 70.4775253,57.1662313 C70.393844,57.1662313 70.3081702,57.171198 70.2215002,57.1816281 C69.9709543,57.8138897 69.9171592,58.4322445 70.0566281,59.0689761 C70.1667089,59.5701167 70.5816289,60.1030441 71.1395045,60.4606469 C71.7481867,60.8654334 72.5536197,61.0879418 73.409361,61.0879418 C73.9368524,61.0879418 74.4643437,61.0025145 74.9410285,60.8410965 C73.838726,60.5917679 73.1652905,59.5482632 72.6128939,58.6920032" id="Fill-70"></path>
                        <path d="M73.6837661,54.2462059 C73.8292123,53.2921019 73.9915939,52.2247569 74.6426149,51.6143488 C73.4895059,51.7747734 72.4534511,52.3906449 71.8612063,53.2727317 C71.4846403,53.8394328 71.2958591,54.4230207 71.3282359,54.9157178 C71.3740614,55.5887064 71.5932268,56.1673275 71.9986828,56.6823749 C73.0989929,56.4514231 73.4815362,55.4948357 73.6075563,54.7264863 C73.6339558,54.5730152 73.658861,54.4120939 73.6837661,54.2462059" id="Fill-72"></path>
                        <path d="M76.9610863,57.7069068 L76.815142,57.5176754 C76.2233953,56.7652195 75.5932947,56.39967 74.8879805,56.39967 C74.7465192,56.39967 74.6000769,56.4145701 74.4521402,56.444867 C74.2593742,57.087062 74.2623629,57.7019401 74.4611061,58.323275 C74.6195029,58.8229255 75.0837351,59.3250594 75.6729913,59.6344852 C76.2149276,59.9046739 76.8978271,60.0546684 77.5931793,60.0546684 C78.2740864,60.0546684 78.9216206,59.9175874 79.4725228,59.658822 C78.3622507,59.5222376 77.5901907,58.5219432 76.9610863,57.7069068" id="Fill-74"></path>
                        <path d="M77.6328283,53.2552986 C77.6926007,52.274871 77.7593465,51.1782224 78.3834699,50.4953005 C77.3309777,50.689002 76.2959192,51.424571 75.725591,52.3905952 C75.412284,52.9324627 75.2668379,53.5781344 75.3455382,54.0753016 C75.4526304,54.7428268 75.7235985,55.2961178 76.1733858,55.7669614 C77.0365987,55.534023 77.5182646,54.8332208 77.6049345,53.6824352 C77.6153947,53.5443608 77.6238624,53.4013197 77.6328283,53.2552986" id="Fill-76"></path>
                        <path d="M81.2270915,56.3939086 L81.0417971,56.1922604 C80.4390922,55.5460921 79.8294138,55.2321963 79.1798872,55.2321963 C78.9901098,55.2321963 78.7953515,55.2600098 78.600095,55.3141469 C78.4661052,55.974222 78.5238852,56.5891002 78.7769217,57.1915615 C78.9751667,57.6658819 79.478251,58.1218254 80.090918,58.3825774 C80.5372185,58.5787623 81.0417971,58.6785931 81.591205,58.6785931 C82.3577859,58.6785931 83.154253,58.4824082 83.8456203,58.1257988 C82.7542761,58.0632183 81.9099911,57.1404044 81.2270915,56.3939086" id="Fill-78"></path>
                        <path d="M79.5357321,51.1682394 C79.2657602,51.7418938 79.1726149,52.403459 79.293654,52.8941694 C79.4560356,53.5477879 79.7718331,54.075252 80.2579819,54.5023886 C81.1062517,54.167136 81.5336243,53.4310703 81.5271489,52.3145549 C81.527647,52.1759839 81.5256546,52.0334394 81.5236622,51.8869216 C81.5117077,50.9382809 81.4972627,49.7825286 82.0900056,49.0603696 C80.9996576,49.3548953 80.0258657,50.1560248 79.5357321,51.1682394" id="Fill-80"></path>
                        <path d="M84.3521415,56.8081319 C84.7361791,56.9427296 85.1570764,57.0112701 85.603875,57.0112701 C86.4456695,57.0112701 87.3223312,56.7639282 88.025653,56.3298381 C86.9467613,56.3154347 86.0601376,55.4611614 85.3468537,54.7737694 C85.2746287,54.7047322 85.2043962,54.6366883 85.1351598,54.5716245 C84.5269758,53.9999567 83.9451912,53.7213245 83.3569312,53.7213245 C83.1203322,53.7213245 82.8807445,53.7685082 82.6436474,53.8603923 C82.5619584,54.5308975 82.6675563,55.1413056 82.9664183,55.7239001 C83.1995306,56.1798436 83.7305087,56.5950602 84.3521415,56.8081319" id="Fill-82"></path>
                        <path d="M83.2965611,49.6578146 C83.0544829,50.2726927 83.0041745,50.903961 83.1580884,51.3877181 C83.363805,52.0264364 83.7169603,52.5340336 84.2364819,52.9373301 C85.0483902,52.5543971 85.4294392,51.7885312 85.3691687,50.6600957 C85.3626934,50.5289747 85.3537275,50.3923903 85.3447617,50.2523292 C85.2829969,49.3012052 85.2082814,48.1429695 85.7820963,47.3721369 C84.6558849,47.7600365 83.7084925,48.62921 83.2965611,49.6578146" id="Fill-84"></path>
                        <path d="M88.4439601,55.0018902 C88.7871532,55.0972509 89.1497724,55.1459246 89.519365,55.1459246 C90.4234224,55.1459246 91.3434191,54.8509023 92.1229507,54.3140015 C92.0656688,54.3184715 92.0078888,54.3209549 91.9501089,54.3209549 C90.8537836,54.3209549 89.9626769,53.5183353 89.2469025,52.8731603 L89.0855171,52.7281325 C88.5002458,52.2175552 87.9433663,51.9692199 87.3830002,51.9692199 C87.1130282,51.9692199 86.8415619,52.0293171 86.5755748,52.148518 C86.5287531,52.8130631 86.668222,53.4130411 87.0014531,53.9802389 C87.2589725,54.4212823 87.8248177,54.8220954 88.4439601,55.0018902" id="Fill-86"></path>
                        <path d="M89.158539,45.5767722 C88.2096523,45.9760953 87.4565202,46.7995751 87.0321362,47.9056603 C86.813967,48.503155 86.7890619,49.1691902 86.9673828,49.6435105 C87.2029857,50.2693154 87.5800498,50.7585358 88.1189975,51.1350121 C89.1261623,50.6294015 89.2193076,49.6012935 89.1171964,48.8220175 C89.0962761,48.6506661 89.0698766,48.4713681 89.0429791,48.2871033 C88.9064988,47.3538594 88.7535811,46.3113479 89.158539,45.5767722" id="Fill-88"></path>
                        <path d="M93.1915316,50.6807572 L93.005241,50.5550996 C92.6251882,50.3067643 92.0414112,49.9759818 91.3784358,49.9759818 C91.0457028,49.9759818 90.7214376,50.0614091 90.4141079,50.2307737 C90.4111192,50.905749 90.5874478,51.4962902 90.9525575,52.0336878 C91.2489289,52.4707578 91.8551206,52.8204139 92.4971757,52.9232247 C92.6934283,52.9579916 92.8981488,52.9758717 93.1088464,52.9758717 C94.2221072,52.9758717 95.4130721,52.5020481 96.2439083,51.7336988 C96.0924849,51.7659823 95.9375748,51.7823725 95.7811704,51.7823725 C94.814352,51.7823725 93.9147775,51.1714677 93.1915316,50.6807572" id="Fill-90"></path>
                        <path d="M90.4042952,45.9953662 C90.2882372,46.6107409 90.3524925,47.2703194 90.5716579,47.7153362 C90.8745047,48.3232609 91.3083526,48.7831778 91.8622434,49.0831668 C92.8051529,48.4523953 92.7638103,47.4247839 92.5600861,46.667858 C92.5172492,46.5014734 92.4689332,46.3281354 92.4191229,46.1503274 C92.164094,45.2394336 91.8786809,44.2202657 92.1919878,43.4375129 C91.305364,43.9585203 90.6229626,44.9314979 90.4042952,45.9953662" id="Fill-92"></path>
                        <path d="M96.6458776,47.8937899 C96.112409,47.6340312 95.6451882,47.5073802 95.2168194,47.5073802 C94.7859601,47.5073802 94.3859832,47.6375079 94.0278469,47.8952799 C94.1135207,48.5677718 94.3640666,49.1319895 94.7939297,49.6177333 C95.1396134,50.010103 95.7727026,50.2753251 96.4461382,50.3095954 C96.493458,50.3120787 96.541774,50.313072 96.5900901,50.313072 C97.8074544,50.313072 99.1692687,49.6425668 100.013056,48.6358157 C99.7709774,48.7237264 99.5129599,48.7684267 99.2419918,48.7684267 C98.4046802,48.7684267 97.5633838,48.3497335 96.8879558,48.0129908 C96.8052707,47.9717672 96.7245779,47.9320335 96.6458776,47.8937899" id="Fill-94"></path>
                        <path d="M95.6966423,44.0950551 C95.6343794,43.9430739 95.5671354,43.7871193 95.4983972,43.6276881 C95.1203368,42.7530513 94.6979452,41.7741137 94.8936998,40.9471573 C94.0678446,41.6136891 93.5393571,42.6383204 93.4770942,43.7026853 C93.461653,44.090585 93.4910411,44.8271474 93.8616299,45.3814317 C94.2406865,45.9466428 94.7188656,46.3385158 95.3220686,46.5789044 C96.1753195,45.8140317 95.9989909,44.8087706 95.6966423,44.0950551" id="Fill-96"></path>
                        <path d="M99.9088524,44.7692356 C99.4889513,44.6261945 99.1178644,44.5566606 98.773177,44.5566606 C98.2143051,44.5566606 97.7211829,44.7463888 97.3077572,45.121375 C97.4840858,45.7799601 97.8078529,46.3074242 98.2964922,46.7310842 C98.6401834,47.0315699 99.1816216,47.2029212 99.7818361,47.2029212 C99.8630269,47.2029212 99.9442177,47.1999412 100.024412,47.1934845 C101.253233,47.0936537 102.612557,46.2051101 103.363697,45.0195576 C103.018511,45.2053123 102.630987,45.2962031 102.189169,45.2962031 C101.467916,45.2962031 100.750149,45.0533312 100.117558,44.8392662 L99.9088524,44.7692356 Z" id="Fill-98"></path>
                        <path d="M98.4437315,41.1397661 C98.3660274,41.0101351 98.2838403,40.8780207 98.1996609,40.7424297 C97.6915956,39.9229233 97.1227617,39.0060695 97.1810397,38.1532862 C96.4737331,38.9141855 96.1081254,39.9904705 96.2007726,41.049372 C96.2461,41.6756736 96.4727369,42.2741616 96.8069642,42.6531212 C97.2602382,43.1632018 97.7857371,43.487031 98.4128491,43.6409989 C99.1590078,42.7797722 98.8437084,41.8077879 98.4437315,41.1397661" id="Fill-100"></path>
                        <path d="M102.838148,41.211535 L102.704158,41.1871981 C102.442156,41.1420011 102.206055,41.1196509 101.983901,41.1196509 C101.21732,41.1196509 100.628064,41.3828863 100.184254,41.9232638 C100.456716,42.5555254 100.852708,43.0333225 101.393648,43.3824818 C101.677069,43.5662499 102.054133,43.6635974 102.484494,43.6635974 C102.712128,43.6635974 102.941753,43.6362805 103.167394,43.5816467 C104.36583,43.3134446 105.592161,42.2113327 106.178926,40.8842291 C105.721169,41.2328918 105.148351,41.4032498 104.440546,41.4032498 C103.886157,41.4032498 103.329278,41.3014323 102.838148,41.211535" id="Fill-102"></path>
                        <path d="M100.706116,37.8289107 C100.595538,37.6967963 100.476989,37.5607086 100.355452,37.4216409 C99.7383018,36.7138854 99.0484288,35.9226892 98.962257,35.1141096 C98.4103586,35.9276559 98.2295471,37.0233111 98.4785987,38.0658225 C98.5901738,38.5351762 98.8721003,39.1733978 99.328861,39.5578208 C99.854858,39.9973742 100.421201,40.2397494 101.058774,40.2973632 C101.675923,39.3611393 101.210197,38.4403121 100.706116,37.8289107" id="Fill-104"></path>
                        <path d="M105.038021,37.1872124 L104.912001,37.186219 C104.170325,37.1941657 103.121319,37.3223067 102.547006,38.3335279 C102.928055,38.9265525 103.379835,39.3248823 103.965604,39.5841443 C104.174808,39.6775184 104.417384,39.7247021 104.686858,39.7247021 C105.03304,39.7247021 105.412096,39.6422548 105.753297,39.4932536 C106.914874,39.0194299 107.942959,37.7097098 108.28665,36.2812853 C107.559419,37.0709915 106.464588,37.1896957 105.37424,37.1896957 C105.259677,37.1896957 105.147603,37.1882057 105.038021,37.1872124" id="Fill-106"></path>
                        <path d="M102.361413,34.2222383 C102.200526,34.0836672 102.023699,33.9431095 101.84239,33.7980817 C101.147536,33.2433007 100.371491,32.6234559 100.155314,31.8958336 C99.7687857,32.7357034 99.7912004,33.8194385 100.217577,34.8202296 C100.471609,35.3909041 100.883541,35.8860846 101.318883,36.1428632 C101.838903,36.4473223 102.356432,36.5958268 102.901357,36.5958268 C102.980556,36.5958268 103.061746,36.5923501 103.142439,36.58639 C103.596211,35.5543087 102.97159,34.7323189 102.361413,34.2222383" id="Fill-108"></path>
                        <path d="M104.273831,34.3929936 C104.730591,34.8991009 105.257585,35.2189567 105.882704,35.3714346 C105.99926,35.3992481 106.125281,35.4141482 106.258274,35.4141482 C106.714537,35.4141482 107.228579,35.2427969 107.632043,34.956218 C108.69649,34.2434958 109.470044,32.764411 109.538284,31.3285365 C108.885769,32.3809813 107.556331,32.6208732 106.55863,32.8001713 L106.39077,32.8304682 C105.652581,32.9779793 104.633461,33.3013118 104.273831,34.3929936" id="Fill-110"></path>
                        <path d="M103.338891,30.3807898 C103.175015,30.2874157 103.001177,30.193545 102.822856,30.0976876 C102.013936,29.6626042 101.108883,29.1753704 100.748256,28.472085 C100.5266,29.4177456 100.744769,30.4945273 101.339006,31.3651908 C101.611469,31.7645139 102.102101,32.2626744 102.660474,32.4643227 C103.038037,32.6004104 103.414105,32.6689509 103.777222,32.6689509 C104.034741,32.6689509 104.291264,32.6346806 104.540814,32.5661401 C104.79933,31.3925077 103.902246,30.6946856 103.338891,30.3807898" id="Fill-112"></path>
                        <path d="M105.240599,30.2062101 C105.791502,30.6229167 106.371792,30.8429417 107.012851,30.8791987 C107.040246,30.8806887 107.067144,30.881682 107.095038,30.881682 C107.601609,30.881682 108.187378,30.6114933 108.661572,30.1585297 C109.58406,29.2699862 110.073197,27.6657404 109.868477,26.2239058 C109.422176,27.3945583 108.15002,27.8748387 107.195157,28.2349248 L107.048216,28.2910486 C106.358841,28.561734 105.424898,29.0554245 105.240599,30.2062101" id="Fill-114"></path>
                        <path d="M103.599399,26.4370271 C103.415599,26.3734533 103.221837,26.3123628 103.023592,26.2497824 C102.154401,25.9756202 101.1831,25.6691745 100.697449,25.0547931 C100.657601,26.0098905 101.071027,27.0126683 101.813699,27.7551907 C102.158884,28.09541 102.734692,28.4952298 103.312492,28.5950606 C103.513227,28.6288342 103.712967,28.6462176 103.904736,28.6462176 C104.357512,28.6462176 104.786379,28.5508569 105.180379,28.3626188 C105.222717,27.1581927 104.211568,26.6396687 103.599399,26.4370271" id="Fill-116"></path>
                        <path d="M109.227119,21.1312946 C109.007455,22.3625408 107.846875,23.075263 106.975692,23.6101772 L106.850668,23.6871611 C106.225549,24.0825108 105.40318,24.742586 105.435557,25.9097617 C105.924694,26.1526336 106.40387,26.2713379 106.898486,26.2713379 C107.03148,26.2713379 107.166964,26.2623978 107.30195,26.2450143 C107.818981,26.1789571 108.388313,25.7885741 108.788788,25.2253497 C109.515023,24.1932684 109.693842,22.4886951 109.227119,21.1312946" id="Fill-118"></path>
                        <path d="M103.110062,22.517502 C102.919289,22.4896885 102.718553,22.4663449 102.513335,22.4430014 C101.604794,22.3362173 100.589162,22.217513 99.9949246,21.6950156 C100.138876,22.6630265 100.72365,23.5535567 101.609277,24.148568 C101.998296,24.4103134 102.621921,24.6894422 103.207691,24.6894422 L103.241063,24.6894422 C103.934921,24.6735488 104.520691,24.4838206 105.028258,24.1098277 C104.840971,22.9212952 103.750125,22.601936 103.110062,22.517502" id="Fill-120"></path>
                        <path d="M106.708659,21.6303988 C107.208755,21.4669942 107.704866,20.9658536 107.973841,20.3539555 C108.505317,19.2016799 108.374814,17.5428003 107.662029,16.2792705 C107.658542,17.5105168 106.660841,18.4169405 105.911694,19.0973791 L105.789659,19.2086333 C105.24573,19.7117605 104.557849,20.5099101 104.815867,21.6537423 C105.13266,21.7426463 105.445469,21.78685 105.744829,21.78685 C106.069593,21.78685 106.393858,21.7346996 106.708659,21.6303988" id="Fill-122"></path>
                        <path d="M100.834527,15.1319616 C100.635784,15.1319616 100.423592,15.1567951 100.204925,15.2054688 C100.045532,15.2402358 99.8796635,15.2804661 99.7098103,15.3216898 C99.1589081,15.4543008 98.589078,15.5918785 98.0541151,15.5918785 C97.7213822,15.5918785 97.4389576,15.5372448 97.1988718,15.4269839 C97.6381989,16.3229775 98.4690351,17.0138462 99.4363516,17.2815517 C99.6868976,17.3471122 99.9523866,17.3818791 100.201438,17.3818791 C100.511757,17.3818791 100.788204,17.3302254 101.024305,17.2284079 C101.614557,16.9721259 102.060858,16.5867096 102.387613,16.0508021 C102.066337,15.4408907 101.543826,15.1319616 100.834527,15.1319616" id="Fill-124"></path>
                        <path d="M106.709356,21.6352165 C107.208954,21.4718119 107.705563,20.9706713 107.975535,20.3582766 C108.506513,19.2060009 108.37601,17.5471214 107.663722,16.2840882 C107.660236,17.5153345 106.662535,18.4207648 105.913886,19.1012035 L105.790854,19.2129543 C105.247423,19.7160816 104.559543,20.5142311 104.817062,21.6580633 C105.134354,21.7469674 105.446665,21.791171 105.746523,21.791171 C106.071286,21.791171 106.395053,21.7390206 106.709356,21.6352165" id="Fill-126"></path>
                        <path d="M102.069076,18.742061 C102.009802,18.742061 101.952022,18.743551 101.895736,18.746531 C101.708948,18.7524911 101.513691,18.7644112 101.313454,18.7763313 C100.990683,18.7961981 100.656954,18.8160649 100.328206,18.8160649 C99.8007142,18.8160649 99.1611496,18.7723579 98.6720122,18.4659122 C98.9903002,19.4051162 99.7533944,20.2122058 100.727186,20.6343757 C101.128159,20.8101971 101.589403,20.9110212 101.993365,20.9110212 C102.14678,20.9110212 102.293223,20.8971144 102.427711,20.8683075 C103.101644,20.7252664 103.641588,20.4297475 104.076432,19.9658572 C103.716802,18.956126 102.789334,18.742061 102.069076,18.742061" id="Fill-128"></path>
                        <path d="M105.27467,17.2272656 C105.738902,16.9754536 106.138381,16.3968324 106.293291,15.7526508 C106.614069,14.5313379 106.213594,12.9375222 105.317507,11.8369003 C105.506786,13.0289096 104.685912,14.0798644 104.069758,14.8695706 L103.952704,15.0195651 C103.499928,15.6071263 102.955999,16.5095767 103.420729,17.5888417 C103.540274,17.6002651 103.658325,17.6062252 103.773386,17.6062252 C104.316319,17.6062252 104.807449,17.4820575 105.27467,17.2272656" id="Fill-130"></path>
                        <path d="M103.890989,11.5538975 C104.015514,10.3112278 103.392885,8.81624952 102.368785,7.88101892 C102.716461,9.01591107 102.063946,10.1701734 101.573812,11.0368634 L101.47469,11.2126848 C101.116055,11.8588532 100.716577,12.8293474 101.348172,13.8241784 C102.033063,13.7755047 102.612856,13.5589564 103.118929,13.1641033 C103.536837,12.8392808 103.832212,12.222416 103.890989,11.5538975" id="Fill-132"></path>
                        <path d="M97.6277387,13.9557465 C97.7154049,13.9646865 97.8065578,13.9691566 97.8972126,13.9691566 C98.3186079,13.9691566 98.7051361,13.8688291 98.9850701,13.686551 C99.4562758,13.3781186 99.7905031,12.9768089 100.006182,12.4607682 C99.7152895,12.0624384 99.3297575,11.8607902 98.8595481,11.8607902 C98.6055154,11.8607902 98.3290681,11.9189006 98.0386739,12.0336315 C97.9116576,12.0828019 97.7801583,12.1374357 97.6456705,12.1925661 C97.0937721,12.4200412 96.4681544,12.6788065 95.9038034,12.6788065 C95.7513838,12.6788065 95.6079301,12.6594364 95.4754346,12.6211928 C95.9655682,13.3542785 96.7635296,13.850949 97.6277387,13.9557465" id="Fill-134"></path>
                        <path d="M98.9574254,5.28149505 C99.3339914,6.1973555 98.917079,7.23241688 98.6022778,8.01268628 L98.5320452,8.18801097 C98.169426,9.10536144 98.2316889,9.83497044 98.7228187,10.4145849 C99.2951394,10.2874373 99.7588735,10.031652 100.140421,9.63431555 C100.452731,9.30899635 100.630554,8.75123535 100.604653,8.17758089 C100.568291,7.13357944 99.8973462,5.96193367 98.9574254,5.28149505" id="Fill-136"></path>
                        <path d="M95.3649055,9.11320883 C95.2538285,9.17231262 95.1397628,9.23638312 95.0227086,9.3024403 C94.4523803,9.62130278 93.8058423,9.98387226 93.2006469,9.98387226 C93.1324067,9.98387226 93.0651628,9.97890556 92.9999113,9.96996549 C93.5428438,10.5783869 94.3388128,10.9389697 95.1522154,10.9389697 L95.1990371,10.938473 C95.6961442,10.9225796 96.153901,10.766625 96.4547554,10.510343 C96.8612077,10.1626737 97.1286891,9.74795376 97.2716447,9.24432985 C97.002669,8.97165773 96.6858753,8.83407999 96.3297315,8.83407999 C96.0313676,8.83407999 95.7071024,8.92795072 95.3649055,9.11320883" id="Fill-138"></path>
                        <path d="M97.101941,6.71473719 C97.3509926,6.37948458 97.4550962,5.82867697 97.36743,5.31064961 C97.2219838,4.34909547 96.503719,3.36966119 95.5613076,2.82878699 C95.9861897,3.6289232 95.7137272,4.62375427 95.5080106,5.37621012 L95.457204,5.56345491 C95.2191107,6.45696519 95.3580815,7.12598039 95.881588,7.60576411 C96.3926419,7.42447937 96.7921207,7.1324371 97.101941,6.71473719" id="Fill-140"></path>
                        <path d="M92.2682972,6.76907294 C91.7716883,7.07303531 91.2098278,7.41772465 90.6494617,7.41772465 C90.5971608,7.41772465 90.54486,7.41424796 90.4935553,7.40828791 C91.0061036,7.9258186 91.7004595,8.21984755 92.4192225,8.21984755 C92.4735158,8.21984755 92.5288052,8.21786087 92.5835966,8.21438418 C93.0328857,8.18458395 93.4612545,8.01621264 93.7297321,7.76489735 C94.0878684,7.42765806 94.3159997,7.03479168 94.4260805,6.56643137 C94.1835042,6.346903 93.9070569,6.23614547 93.6042101,6.23614547 C93.3108273,6.23614547 92.9930374,6.33746626 92.6583121,6.53663114 C92.5307976,6.60864836 92.4012908,6.68811565 92.2682972,6.76907294" id="Fill-142"></path>
                        <path d="M92.8271691,5.2242786 C93.2062256,5.00922027 93.4836691,4.72115136 93.6739446,4.34517177 C93.825368,4.04518277 93.8343338,3.59072924 93.6968573,3.18743277 C93.4233986,2.44789036 92.8550628,1.82953555 92.1592126,1.50669971 C92.4735158,2.06793741 92.3674198,2.81343987 92.2787574,3.431298 C92.2677991,3.50977195 92.2568408,3.58675588 92.2468788,3.66125646 C92.1487524,4.38242206 92.3440089,4.90740281 92.8271691,5.2242786" id="Fill-144"></path>
                        <path d="M88.1939621,0.25513965 C88.6920653,0.633602591 88.8918047,1.33688806 89.0566769,1.92047593 C89.0780953,1.99447983 89.0985176,2.06699373 89.1194379,2.13752095 C89.3161887,2.81696623 89.6972377,3.20784593 90.2521247,3.30022665 C90.504663,2.95851733 90.6371585,2.59396116 90.6565845,2.187188 C90.67352,1.86037879 90.5016744,1.45261229 90.2202461,1.14765659 C89.6822946,0.59486229 88.946098,0.271033107 88.1939621,0.25513965" id="Fill-146"></path>
                        <path d="M89.5167749,4.45597897 C88.9872911,4.7688814 88.3865786,5.12300748 87.7818812,5.12300748 C87.7046752,5.12300748 87.6289635,5.11704744 87.5552443,5.10512735 C88.0917015,5.65841831 88.8552937,5.99764428 89.5825245,5.99764428 C89.6403045,5.99764428 89.6980844,5.99516093 89.7553663,5.99069089 C90.1996744,5.95642063 90.6285413,5.77215586 90.8756005,5.50941715 C91.1958809,5.16671449 91.3931298,4.77285476 91.4768111,4.30598447 C91.2427026,4.12122303 90.9811984,4.02784897 90.6997701,4.02784897 C90.404893,4.02784897 90.0791334,4.12966643 89.7309593,4.33032132 C89.6617229,4.37055164 89.589996,4.41276863 89.5167749,4.45597897" id="Fill-148"></path>
                        <path d="M61.893712,59.3021629 L61.8214871,59.1839553 C63.847273,57.9626425 67.2856797,57.4232583 70.6105189,56.9017543 C72.8046637,56.5580583 74.8762751,56.2327391 76.5170272,55.7296118 C80.6896381,54.5952163 84.9847825,52.8434594 90.0355494,50.215079 L90.0998047,50.3382532 C85.0400719,52.9711037 80.7364598,54.726834 76.5558793,55.8627195 C74.9071575,56.3688268 72.8310632,56.694146 70.6319373,57.0388353 C67.3205469,57.557856 63.8960871,58.0952535 61.893712,59.3021629" id="Fill-150"></path>
                        <path d="M70.5978671,57.0744466 L70.5804334,56.9373655 C75.0170391,56.3602344 79.5941098,55.0217073 84.5721537,52.8457937 C88.8852298,50.9544724 93.3686571,48.7199517 96.9390612,45.207001 L97.0366894,45.3063351 C93.450346,48.8341859 88.9534699,51.0761566 84.6284394,52.9729414 C79.6374448,55.1538217 75.0484196,56.4958254 70.5978671,57.0744466" id="Fill-152"></path>
                        <path d="M86.9017328,51.9360423 L86.8464433,51.8088947 C94.5929451,48.4772288 103.431289,41.129485 105.003303,30.4997424 L105.141278,30.5201059 C103.560298,41.2059723 94.6826037,48.589973 86.9017328,51.9360423" id="Fill-154"></path>
                        <path d="M104.333404,34.0035046 L104.200908,33.9612876 C105.685754,29.2756979 105.621499,24.1838316 104.019101,19.6238995 C102.528776,15.3247194 99.6836101,11.2187442 95.7914313,7.75049391 L95.8835804,7.64718644 C99.7936909,11.1308335 102.652305,15.2566756 104.1506,19.5782058 C105.76296,24.1659515 105.827714,29.289108 104.333404,34.0035046" id="Fill-156"></path>
                        <path d="M103.080126,17.3165173 C101.165417,13.1886885 98.0692077,9.43187264 93.8771707,6.1498738 C91.8937236,4.68419907 89.8813864,3.35510874 88.1743866,2.24803014 L88.2505964,2.13180924 C89.9590905,3.23988118 91.9734201,4.57046152 93.9618483,6.03961294 C98.1728131,9.3365119 101.282472,13.1102146 103.206146,17.2584068 L103.080126,17.3165173 Z" id="Fill-158"></path>
                        <path d="M63.6776688,58.4456049 L63.63533,58.3134906 C64.6778601,57.981218 65.7672119,57.7060625 66.8734993,57.4934875 C67.8766792,57.3042561 68.9077529,57.1651883 69.9049556,57.0305906 C71.2856978,56.8443391 72.7132618,56.6521276 74.0915134,56.3223384 L74.1238902,56.4574328 C72.7391631,56.7882154 71.3081125,56.9814202 69.9238836,57.1681683 C68.9281752,57.3022694 67.8990938,57.4413371 66.8994006,57.6295752 C65.7985924,57.8406602 64.7147198,58.115319 63.6776688,58.4456049" id="Fill-160"></path>
                        <path d="M86.4768507,1.90711549 C86.3807168,1.92648564 86.2875715,1.94535912 86.1994072,1.96075591 C85.952348,2.00545625 85.74962,2.02730976 85.5782725,2.0283031 L85.5673142,2.0283031 C85.4268491,2.0283031 85.2973422,2.01439632 85.1608619,1.98310608 C85.1698278,1.99999288 85.1787937,2.01638301 85.1877595,2.03277313 C85.3157721,2.27067831 85.5015646,2.69433827 85.9971773,2.99929398 L86.0161052,3.00823405 C86.2282972,3.15624186 86.4798394,3.26252936 86.8011159,3.30673303 C86.9231512,3.32461317 87.0416998,3.3410033 87.1607465,3.3410033 C87.3953531,3.3410033 87.607047,3.29679962 87.7724173,3.21236563 C88.1061465,3.04250431 88.3890691,2.7663555 88.5629071,2.45643309 C88.2276837,1.55547276 87.2573785,1.74967093 86.4768507,1.90711549" id="Fill-162"></path>
                        <path d="M59.9710833,60.7087338 C60.0677153,60.5512893 60.1618568,60.3968248 60.2550021,60.2522936 C60.5902256,59.7168828 61.1705159,59.0796545 62.0312383,59.0796545 C62.1836579,59.0796545 62.3425529,59.100018 62.5034402,59.1397517 C62.6478902,59.7625765 62.5935969,60.3749713 62.338568,61.0102129 C62.1159159,61.5630072 61.5973904,62.0283874 61.1869533,62.2797027 C60.5867389,62.6596557 59.8893944,62.8603106 59.1691371,62.8603106 C58.8219591,62.8603106 58.478766,62.8141202 58.1465311,62.7232295 C58.9300475,62.4108237 59.4799535,61.5118501 59.9710833,60.7087338" id="Fill-164"></path>
                        <path d="M62.3256672,59.0688768 C63.1829029,59.0688768 63.7686723,59.7150451 64.1093749,60.2569127 C64.2687679,60.4799177 64.4092331,60.7193129 64.5581659,60.9731116 C64.9940063,61.7151373 65.4427973,62.4795133 66.2980406,62.7104651 C65.9164935,62.8237059 65.5394293,62.8808231 65.1753159,62.8808231 C64.4899258,62.8808231 63.8269504,62.6851349 63.1475375,62.2838251 C62.7405872,62.0275431 62.2265446,61.5537194 62.0118621,60.9964551 C61.7682896,60.3582335 61.7239584,59.7448454 61.8768761,59.1245039 C62.0292957,59.0877502 62.180221,59.0688768 62.3256672,59.0688768" id="Fill-166"></path>
                        <path d="M61.7137473,56.6509853 C61.567305,57.2777835 61.2520056,57.8102143 60.7509137,58.2770846 C59.6486112,57.9055751 59.3417796,56.8988239 59.2067937,56.1687182 L59.174417,55.9784934 C59.0070543,54.9950858 58.7849002,53.6853656 57.7986558,53.0247938 C59.145527,53.093831 60.6029771,53.8736037 61.2998235,54.9081684 C61.673401,55.4793395 61.8322959,56.1468647 61.7137473,56.6509853" id="Fill-168"></path>
                        <path d="M55.7150899,59.8177566 C55.8545588,59.5589912 55.9865562,59.313636 56.1344928,59.0901343 C56.468222,58.5134998 57.0490104,57.8320678 57.939619,57.8320678 C58.065141,57.8320678 58.195146,57.8454779 58.3266452,57.8722981 C58.5024757,58.4876729 58.4805591,59.1020544 58.2598994,59.7482227 C58.0671334,60.3119438 57.5705245,60.8041443 57.1700495,61.0768164 C56.4672258,61.5282899 55.768885,61.7488116 55.0371714,61.7488116 C54.7148986,61.7488116 54.3796751,61.7046079 54.0399687,61.6171939 C54.8862461,61.3554485 55.3066452,60.5746825 55.7150899,59.8177566" id="Fill-170"></path>
                        <path d="M56.640765,53.8810041 C57.0766053,54.3652579 57.3326304,55.0168896 57.2892954,55.536407 C57.2384889,56.1825753 57.0068709,56.7542431 56.5824869,57.2836939 C55.3885334,57.0750923 54.9561798,56.0221508 54.8042583,55.406776 C54.7659043,55.2607548 54.7295428,55.109767 54.691687,54.9543091 C54.4600689,54.000205 54.2005571,52.9323634 53.4862771,52.3999326 L53.4942467,52.3999326 C54.5293053,52.3999326 55.7053271,52.9532236 56.640765,53.8810041" id="Fill-172"></path>
                        <path d="M51.7256315,58.6920032 L51.8596213,58.4853882 C52.446885,57.597838 53.1018908,57.1662313 53.8614983,57.1662313 C53.9451796,57.1662313 54.0308534,57.171198 54.1175233,57.1816281 C54.3680693,57.8138897 54.4218644,58.4322445 54.2818974,59.0689761 C54.1723147,59.5701167 53.7573947,60.1030441 53.1990209,60.4606469 C52.5908369,60.8654334 51.7854039,61.0879418 50.9291644,61.0879418 C50.4016731,61.0879418 49.8741818,61.0025145 49.3974969,60.8410965 C50.4997994,60.5917679 51.173235,59.5482632 51.7256315,58.6920032" id="Fill-174"></path>
                        <path d="M50.6547594,54.2462059 C50.5093132,53.2921019 50.3474297,52.2247569 49.6959106,51.6143488 C50.8495177,51.7747734 51.8850744,52.3906449 52.4773191,53.2727317 C52.8538852,53.8394328 53.0431644,54.4230207 53.0102896,54.9157178 C52.9649622,55.5887064 52.7452987,56.1673275 52.3403408,56.6823749 C51.2395326,56.4514231 50.8574874,55.4948357 50.7309692,54.7264863 C50.7045697,54.5730152 50.6801626,54.4120939 50.6547594,54.2462059" id="Fill-176"></path>
                        <path d="M47.3774392,57.7069068 L47.5238816,57.5176754 C48.1151301,56.7652195 48.7457288,56.39967 49.4505449,56.39967 C49.5920063,56.39967 49.7384486,56.4145701 49.8863853,56.444867 C50.0791512,57.087062 50.0761626,57.7019401 49.8779175,58.323275 C49.7195207,58.8229255 49.2552885,59.3250594 48.6655342,59.6344852 C48.1235979,59.9046739 47.4406983,60.0546684 46.7453462,60.0546684 C46.0644391,60.0546684 45.4169048,59.9175874 44.8660026,59.658822 C45.9762748,59.5222376 46.7483348,58.5219432 47.3774392,57.7069068" id="Fill-178"></path>
                        <path d="M46.7059462,53.2552986 C46.6461738,52.274871 46.579428,51.1782224 45.9548065,50.4953005 C47.0077968,50.689002 48.0428554,51.424571 48.6131836,52.3905952 C48.9259924,52.9324627 49.0719367,53.5781344 48.9932364,54.0753016 C48.8861442,54.7428268 48.615176,55.2961178 48.1653888,55.7669614 C47.3021758,55.534023 46.82051,54.8332208 46.73384,53.6824352 C46.7233798,53.5443608 46.7149121,53.4013197 46.7059462,53.2552986" id="Fill-180"></path>
                        <path d="M43.1114838,56.3939086 L43.2967782,56.1922604 C43.8999812,55.5460921 44.5091615,55.2321963 45.1591862,55.2321963 C45.3484654,55.2321963 45.5432238,55.2600098 45.7389784,55.3141469 C45.8724701,55.974222 45.8146901,56.5891002 45.5621517,57.1915615 C45.3639066,57.6658819 44.8603243,58.1218254 44.2476573,58.3825774 C43.8013568,58.5787623 43.2972763,58.6785931 42.7478684,58.6785931 C41.9812875,58.6785931 41.1848204,58.4824082 40.492955,58.1257988 C41.5842992,58.0632183 42.4285842,57.1404044 43.1114838,56.3939086" id="Fill-182"></path>
                        <path d="M44.8030424,51.1682394 C45.0730143,51.7418938 45.1661597,52.403459 45.0451206,52.8941694 C44.8827389,53.5477879 44.5669414,54.075252 44.0807927,54.5023886 C43.2320247,54.167136 42.8051503,53.4310703 42.8116256,52.3145549 C42.8111275,52.1759839 42.8131199,52.0334394 42.8146142,51.8869216 C42.8270668,50.9382809 42.8415118,49.7825286 42.2487689,49.0603696 C43.3391169,49.3548953 44.3129088,50.1560248 44.8030424,51.1682394" id="Fill-184"></path>
                        <path d="M39.986633,56.8081319 C39.6025954,56.9427296 39.1816982,57.0112701 38.7344015,57.0112701 C37.8931051,57.0112701 37.0164433,56.7639282 36.3131216,56.3298381 C37.3920132,56.3154347 38.278637,55.4611614 38.9919208,54.7737694 C39.0641458,54.7047322 39.1343784,54.6366883 39.2031166,54.5716245 C39.8113007,53.9999567 40.3930853,53.7213245 40.9818433,53.7213245 C41.2184424,53.7213245 41.45803,53.7685082 41.6946291,53.8603923 C41.7768161,54.5308975 41.6712182,55.1413056 41.3723563,55.7239001 C41.1392439,56.1798436 40.6082659,56.5950602 39.986633,56.8081319" id="Fill-186"></path>
                        <path d="M41.0422134,49.6578146 C41.2842916,50.2726927 41.3346,50.903961 41.1806861,51.3877181 C40.9749695,52.0264364 40.6218143,52.5340336 40.1017945,52.9373301 C39.2898862,52.5543971 38.9093353,51.7885312 38.9696058,50.6600957 C38.9760811,50.5289747 38.985047,50.3923903 38.9940129,50.2523292 C39.0552796,49.3012052 39.1304932,48.1429695 38.5566782,47.3721369 C39.6823916,47.7600365 40.630282,48.62921 41.0422134,49.6578146" id="Fill-188"></path>
                        <path d="M35.8948144,55.0018902 C35.5516213,55.0972509 35.1890021,55.1459246 34.8194095,55.1459246 C33.9153521,55.1459246 32.9948573,54.8509023 32.2153257,54.3140015 C32.2731057,54.3184715 32.3308857,54.3209549 32.3881676,54.3209549 C33.4849909,54.3209549 34.3755995,53.5183353 35.0913739,52.8731603 L35.2527594,52.7281325 C35.8385288,52.2175552 36.3954082,51.9692199 36.9557744,51.9692199 C37.2257463,51.9692199 37.4972126,52.0293171 37.7631997,52.148518 C37.8100214,52.8130631 37.6705525,53.4130411 37.3373215,53.9802389 C37.0798021,54.4212823 36.5139568,54.8220954 35.8948144,55.0018902" id="Fill-190"></path>
                        <path d="M35.1802355,45.5767722 C36.1286241,45.9760953 36.8817562,46.7995751 37.3066383,47.9056603 C37.5248075,48.503155 37.5497127,49.1691902 37.3713917,49.6435105 C37.1357889,50.2693154 36.7587247,50.7585358 36.2192789,51.1350121 C35.2126122,50.6294015 35.1194669,49.6012935 35.2215781,48.8220175 C35.2424984,48.6506661 35.2688979,48.4713681 35.2957955,48.2871033 C35.4322758,47.3538594 35.5851935,46.3113479 35.1802355,45.5767722" id="Fill-192"></path>
                        <path d="M31.1472429,50.6807572 L31.3335336,50.5550996 C31.7135863,50.3067643 32.2968652,49.9759818 32.9603388,49.9759818 C33.2930717,49.9759818 33.6168389,50.0614091 33.9246667,50.2307737 C33.9276553,50.905749 33.7513267,51.4962902 33.3862171,52.0336878 C33.0898456,52.4707578 32.4831559,52.8204139 31.8411008,52.9232247 C31.6453462,52.9579916 31.4401277,52.9758717 31.2299281,52.9758717 C30.1166673,52.9758717 28.9252044,52.5020481 28.0948662,51.7336988 C28.2462896,51.7659823 28.4007016,51.7823725 28.5571061,51.7823725 C29.5244226,51.7823725 30.423997,51.1714677 31.1472429,50.6807572" id="Fill-194"></path>
                        <path d="M33.9344793,45.9953662 C34.0505374,46.6107409 33.986282,47.2703194 33.7666185,47.7153362 C33.4637717,48.3232609 33.0299238,48.7831778 32.4765311,49.0831668 C31.5336216,48.4523953 31.5749642,47.4247839 31.7786884,46.667858 C31.8210272,46.5014734 31.8698413,46.3281354 31.9196517,46.1503274 C32.1746805,45.2394336 32.4600937,44.2202657 32.1467867,43.4375129 C33.0334105,43.9585203 33.715812,44.9314979 33.9344793,45.9953662" id="Fill-196"></path>
                        <path d="M27.6926479,47.8937899 C28.2261164,47.6340312 28.6933373,47.5073802 29.1217061,47.5073802 C29.5525654,47.5073802 29.9525423,47.6375079 30.3111766,47.8952799 C30.2250048,48.5677718 29.9744588,49.1319895 29.5450938,49.6177333 C29.1989121,50.010103 28.5658229,50.2753251 27.8923873,50.3095954 C27.8450675,50.3120787 27.7972495,50.313072 27.7489335,50.313072 C26.5310711,50.313072 25.1692568,49.6425668 24.3254699,48.6358157 C24.5680462,48.7237264 24.8260637,48.7684267 25.0965337,48.7684267 C25.9343434,48.7684267 26.7751417,48.3497335 27.4510678,48.0129908 C27.5337529,47.9717672 27.6144457,47.9320335 27.6926479,47.8937899" id="Fill-198"></path>
                        <path d="M28.6421323,44.0950551 C28.7043952,43.9430739 28.7716391,43.7871193 28.8403774,43.6276881 C29.2184377,42.7530513 29.6408293,41.7741137 29.4450747,40.9471573 C30.2704318,41.6136891 30.7989193,42.6383204 30.8616804,43.7026853 C30.8771216,44.090585 30.8477335,44.8271474 30.4771446,45.3814317 C30.0980881,45.9466428 29.619909,46.3385158 29.0167059,46.5789044 C28.1634551,45.8140317 28.3397836,44.8087706 28.6421323,44.0950551" id="Fill-200"></path>
                        <path d="M24.4296731,44.7692356 C24.8495741,44.6261945 25.2206611,44.5566606 25.5653485,44.5566606 C26.1247185,44.5566606 26.6173426,44.7463888 27.0307683,45.121375 C26.8544397,45.7799601 26.5306726,46.3074242 26.0425314,46.7310842 C25.6988402,47.0315699 25.1574019,47.2029212 24.5566894,47.2029212 C24.4754986,47.2029212 24.3943078,47.1999412 24.3141131,47.1934845 C23.0857905,47.0936537 21.7259687,46.2051101 20.974829,45.0195576 C21.3200145,45.2053123 21.7080369,45.2962031 22.1493564,45.2962031 C22.871108,45.2962031 23.5883767,45.0533312 24.2214659,44.8392662 L24.4296731,44.7692356 Z" id="Fill-202"></path>
                        <path d="M25.895043,41.1397661 C25.9727472,41.0101351 26.0549342,40.8780207 26.1391136,40.7424297 C26.647179,39.9229233 27.2160129,39.0060695 27.1572367,38.1532862 C27.8650414,38.9141855 28.2306492,39.9904705 28.138002,41.049372 C28.0926746,41.6756736 27.8660376,42.2741616 27.5318103,42.6531212 C27.0785364,43.1632018 26.5530374,43.487031 25.9259254,43.6409989 C25.1797668,42.7797722 25.494568,41.8077879 25.895043,41.1397661" id="Fill-204"></path>
                        <path d="M21.5006268,41.211535 L21.6346165,41.1871981 C21.8966188,41.1420011 22.1327198,41.1196509 22.3548738,41.1196509 C23.1214547,41.1196509 23.7107109,41.3828863 24.1545209,41.9232638 C23.8820584,42.5555254 23.4860663,43.0333225 22.9451262,43.3824818 C22.6617054,43.5662499 22.2846413,43.6635974 21.853782,43.6635974 C21.6266469,43.6635974 21.3970213,43.6362805 21.1713805,43.5816467 C19.9729441,43.3134446 18.7466139,42.2113327 18.1593502,40.8842291 C18.6176051,41.2328918 19.1904239,41.4032498 19.8982286,41.4032498 C20.4526175,41.4032498 21.0094969,41.3014323 21.5006268,41.211535" id="Fill-206"></path>
                        <path d="M23.6326581,37.8289107 C23.743237,37.6967963 23.8617856,37.5607086 23.9833228,37.4216409 C24.6004727,36.7138854 25.2903457,35.9226892 25.3765176,35.1141096 C25.928416,35.9276559 26.1087293,37.0233111 25.8601758,38.0658225 C25.7486007,38.5351762 25.4666743,39.1733978 25.0094155,39.5578208 C24.4839165,39.9973742 23.9175731,40.2397494 23.280001,40.2973632 C22.6628511,39.3611393 23.1285776,38.4403121 23.6326581,37.8289107" id="Fill-208"></path>
                        <path d="M19.3007538,37.1872124 L19.4267739,37.186219 C20.1684496,37.1941657 21.2174551,37.3223067 21.79127,38.3335279 C21.410221,38.9265525 20.9584414,39.3248823 20.37317,39.5841443 C20.1639667,39.6775184 19.9213904,39.7247021 19.6519165,39.7247021 C19.3052367,39.7247021 18.9266782,39.6422548 18.5849794,39.4932536 C17.4239007,39.0194299 16.3953175,37.7097098 16.0521244,36.2812853 C16.7793551,37.0709915 17.8736879,37.1896957 18.964036,37.1896957 C19.0790978,37.1896957 19.191171,37.1882057 19.3007538,37.1872124" id="Fill-210"></path>
                        <path d="M21.9771123,34.2222383 C22.1384978,34.0836672 22.3148263,33.9431095 22.4961359,33.7980817 C23.1909899,33.2433007 23.9670348,32.6234559 24.1832116,31.8958336 C24.5702378,32.7357034 24.5473251,33.8194385 24.1209487,34.8202296 C23.866916,35.3909041 23.4549847,35.8860846 23.0196424,36.1428632 C22.4996226,36.4473223 21.9820934,36.5958268 21.4371684,36.5958268 C21.35797,36.5958268 21.2772773,36.5923501 21.1960864,36.58639 C20.7428125,35.5543087 21.3674339,34.7323189 21.9771123,34.2222383" id="Fill-212"></path>
                        <path d="M20.0649438,34.3929936 C19.6081831,34.8991009 19.0811898,35.2189567 18.4560703,35.3714346 C18.3395141,35.3992481 18.213494,35.4141482 18.0805004,35.4141482 C17.6237397,35.4141482 17.1101953,35.2427969 16.7062335,34.956218 C15.642285,34.2434958 14.8687307,32.764411 14.7999924,31.3285365 C15.4530058,32.3809813 16.7819452,32.6208732 17.7801442,32.8001713 L17.9475068,32.8304682 C18.6856959,32.9779793 19.7053132,33.3013118 20.0649438,34.3929936" id="Fill-214"></path>
                        <path d="M20.9998836,30.3807898 C21.1637595,30.2874157 21.3375976,30.193545 21.5159185,30.0976876 C22.3248382,29.6626042 23.2298918,29.1753704 23.5905186,28.472085 C23.8116764,29.4177456 23.5940053,30.4945273 22.9997681,31.3651908 C22.7268075,31.7645139 22.2366739,32.2626744 21.6783002,32.4643227 C21.3007379,32.6004104 20.92467,32.6689509 20.5615527,32.6689509 C20.3040333,32.6689509 20.0475101,32.6346806 19.7979604,32.5661401 C19.5394448,31.3925077 20.4365288,30.6946856 20.9998836,30.3807898" id="Fill-216"></path>
                        <path d="M19.0981752,30.2062101 C18.547273,30.6229167 17.9669827,30.8429417 17.3259238,30.8791987 C17.2985281,30.8806887 17.2711324,30.881682 17.2437368,30.881682 C16.7371658,30.881682 16.1513963,30.6114933 15.677202,30.1585297 C14.7542167,29.2699862 14.2655774,27.6657404 14.4702979,26.2239058 C14.9165984,27.3945583 16.1887541,27.8748387 17.143618,28.2349248 L17.2905585,28.2910486 C17.9799334,28.561734 18.9133789,29.0554245 19.0981752,30.2062101" id="Fill-218"></path>
                        <path d="M20.7393756,26.4370271 C20.9226776,26.3734533 21.1169378,26.3123628 21.3151829,26.2497824 C22.1843731,25.9756202 23.1556744,25.6691745 23.6413251,25.0547931 C23.6811733,26.0098905 23.2677476,27.0126683 22.5250757,27.7551907 C22.1798902,28.09541 21.6040828,28.4952298 21.026283,28.5950606 C20.8255474,28.6288342 20.625808,28.6462176 20.4340383,28.6462176 C19.9812624,28.6462176 19.5523955,28.5508569 19.1583958,28.3626188 C19.1160571,27.1581927 20.1272067,26.6396687 20.7393756,26.4370271" id="Fill-220"></path>
                        <path d="M15.1114066,21.1312946 C15.3310701,22.3625408 16.4916507,23.075263 17.3633314,23.6101772 L17.4878572,23.6871611 C18.1129767,24.0825108 18.9358433,24.742586 18.9029685,25.9097617 C18.4138311,26.1526336 17.9346558,26.2713379 17.4400393,26.2713379 C17.3075438,26.2713379 17.1715616,26.2623978 17.0370737,26.2450143 C16.5200426,26.1789571 15.9502124,25.7885741 15.5497374,25.2253497 C14.8235029,24.1932684 14.6446838,22.4886951 15.1114066,21.1312946" id="Fill-222"></path>
                        <path d="M21.2287122,22.517502 C21.4194857,22.4896885 21.6202213,22.4663449 21.8254399,22.4430014 C22.7334821,22.3362173 23.7496127,22.217513 24.3438499,21.6950156 C24.1998981,22.6630265 23.6151249,23.5535567 22.7289992,24.148568 C22.3404786,24.4103134 21.7168534,24.6894422 21.131084,24.6894422 L21.097711,24.6894422 C20.4038532,24.6735488 19.8180838,24.4838206 19.3105166,24.1098277 C19.4973053,22.9212952 20.5886495,22.601936 21.2287122,22.517502" id="Fill-224"></path>
                        <path d="M17.6301155,21.6303988 C17.1300198,21.4669942 16.633909,20.9658536 16.3649332,20.3539555 C15.833457,19.2016799 15.9639601,17.5428003 16.6767458,16.2792705 C16.6797345,17.5105168 17.6774353,18.4169405 18.4270807,19.0973791 L18.5491159,19.2086333 C19.0930447,19.7117605 19.7809253,20.5099101 19.5229078,21.6537423 C19.205616,21.7426463 18.8933053,21.78685 18.5939452,21.78685 C18.2686838,21.78685 17.9444186,21.7346996 17.6301155,21.6303988" id="Fill-226"></path>
                        <path d="M23.5042471,15.1319616 C23.7029903,15.1319616 23.9151823,15.1567951 24.1338496,15.2054688 C24.2932426,15.2402358 24.459111,15.2804661 24.6289642,15.3216898 C25.1798664,15.4543008 25.7496965,15.5918785 26.2846594,15.5918785 C26.6173924,15.5918785 26.8998169,15.5372448 27.1399027,15.4269839 C26.7005756,16.3229775 25.8697394,17.0138462 24.9024229,17.2815517 C24.651877,17.3471122 24.3863879,17.3818791 24.1373363,17.3818791 C23.827018,17.3818791 23.5500726,17.3302254 23.3144697,17.2284079 C22.7242174,16.9721259 22.2779169,16.5867096 21.9511611,16.0508021 C22.2724377,15.4408907 22.794948,15.1319616 23.5042471,15.1319616" id="Fill-228"></path>
                        <path d="M17.6291691,21.6352165 C17.1295715,21.4718119 16.6329626,20.9706713 16.3629906,20.3582766 C15.8320125,19.2060009 15.9625156,17.5471214 16.6748032,16.2840882 C16.6787881,17.5153345 17.6759908,18.4207648 18.4251381,19.1012035 L18.5476714,19.2129543 C19.0911021,19.7160816 19.7794808,20.5142311 19.5214633,21.6580633 C19.2046696,21.7469674 18.8918608,21.791171 18.5925007,21.791171 C18.2677374,21.791171 17.9434722,21.7390206 17.6291691,21.6352165" id="Fill-230"></path>
                        <path d="M22.2696982,18.742061 C22.3289725,18.742061 22.3867524,18.743551 22.4430381,18.746531 C22.6298268,18.7524911 22.8250833,18.7644112 23.0248227,18.7763313 C23.3480917,18.7961981 23.6813228,18.8160649 24.010569,18.8160649 C24.5380604,18.8160649 25.1776249,18.7723579 25.6667623,18.4659122 C25.3484744,19.4051162 24.5848821,20.2122058 23.6115883,20.6343757 C23.2106152,20.8101971 22.7493716,20.9110212 22.3454099,20.9110212 C22.191496,20.9110212 22.0455517,20.8971144 21.9110638,20.8683075 C21.2371301,20.7252664 20.6971862,20.4297475 20.2623421,19.9658572 C20.6219726,18.956126 21.5494409,18.742061 22.2696982,18.742061" id="Fill-232"></path>
                        <path d="M19.0638558,17.2272656 C18.5996236,16.9754536 18.2001448,16.3968324 18.0457328,15.7526508 C17.7244562,14.5313379 18.1254293,12.9375222 19.021019,11.8369003 C18.8322378,13.0289096 19.6526139,14.0798644 20.2687676,14.8695706 L20.3858219,15.0195651 C20.8385977,15.6071263 21.3830246,16.5095767 20.9177961,17.5888417 C20.7982514,17.6002651 20.6802009,17.6062252 20.5656371,17.6062252 C20.0227046,17.6062252 19.5310767,17.4820575 19.0638558,17.2272656" id="Fill-234"></path>
                        <path d="M20.4477859,11.5538975 C20.3232601,10.3112278 20.9458892,8.81624952 21.9699894,7.88101892 C21.6223134,9.01591107 22.2748286,10.1701734 22.7649622,11.0368634 L22.8640848,11.2126848 C23.222221,11.8588532 23.6221979,12.8293474 22.990603,13.8241784 C22.305711,13.7755047 21.7259189,13.5589564 21.2193478,13.1641033 C20.8019373,12.8392808 20.506064,12.222416 20.4477859,11.5538975" id="Fill-236"></path>
                        <path d="M26.7107867,13.9557465 C26.6231206,13.9646865 26.5319677,13.9691566 26.441811,13.9691566 C26.0199175,13.9691566 25.6333894,13.8688291 25.3534554,13.686551 C24.8827478,13.3781186 24.5480224,12.9768089 24.3323437,12.4607682 C24.623236,12.0624384 25.0087679,11.8607902 25.4789774,11.8607902 C25.7335082,11.8607902 26.0094574,11.9189006 26.2998516,12.0336315 C26.4268679,12.0828019 26.5583671,12.1374357 26.692855,12.1925661 C27.2447534,12.4200412 27.8708692,12.6788065 28.4347221,12.6788065 C28.5871417,12.6788065 28.7305954,12.6594364 28.863589,12.6211928 C28.3729573,13.3542785 27.575494,13.850949 26.7107867,13.9557465" id="Fill-238"></path>
                        <path d="M25.381399,5.28149505 C25.0043348,6.1973555 25.4217453,7.23241688 25.7365466,8.01268628 L25.8067792,8.18801097 C26.1693983,9.10536144 26.1071354,9.83497044 25.6160056,10.4145849 C25.043685,10.2874373 24.5799508,10.031652 24.1984038,9.63431555 C23.8855949,9.30899635 23.7077721,8.75123535 23.7341715,8.17758089 C23.7705331,7.13357944 24.4414781,5.96193367 25.381399,5.28149505" id="Fill-240"></path>
                        <path d="M28.9736698,9.11320883 C29.0847468,9.17231262 29.1988125,9.23638312 29.3158667,9.3024403 C29.8866931,9.62130278 30.532733,9.98387226 31.1379284,9.98387226 C31.2066667,9.98387226 31.2734125,9.97890556 31.338664,9.96996549 C30.7962296,10.5783869 29.9997625,10.9389697 29.186858,10.9389697 L29.1395382,10.938473 C28.6429292,10.9225796 28.1846743,10.766625 27.8838199,10.510343 C27.4773676,10.1626737 27.2098862,9.74795376 27.0674287,9.24432985 C27.3364044,8.97165773 27.6527,8.83407999 28.0093419,8.83407999 C28.3077058,8.83407999 28.631971,8.92795072 28.9736698,9.11320883" id="Fill-242"></path>
                        <path d="M27.2368834,6.71473719 C26.9878318,6.37948458 26.8837282,5.82867697 26.9708963,5.31064961 C27.1168405,4.34909547 27.8351054,3.36966119 28.7775167,2.82878699 C28.3526347,3.6289232 28.6250971,4.62375427 28.8308138,5.37621012 L28.8816203,5.56345491 C29.1197137,6.45696519 28.9807429,7.12598039 28.4572364,7.60576411 C27.9461824,7.42447937 27.5467036,7.1324371 27.2368834,6.71473719" id="Fill-244"></path>
                        <path d="M32.0705271,6.76907294 C32.566638,7.07303531 33.1289965,7.41772465 33.6893627,7.41772465 C33.7416635,7.41772465 33.7939644,7.41424796 33.845269,7.40828791 C33.3327208,7.9258186 32.6383648,8.21984755 31.9196018,8.21984755 C31.8648105,8.21984755 31.8100191,8.21786087 31.7552278,8.21438418 C31.3059386,8.18458395 30.8775698,8.01621264 30.6090922,7.76489735 C30.250956,7.42765806 30.0228247,7.03479168 29.9127439,6.56643137 C30.1553201,6.346903 30.4317674,6.23614547 30.7346142,6.23614547 C31.027997,6.23614547 31.3457869,6.33746626 31.6805123,6.53663114 C31.8080267,6.60864836 31.9375336,6.68811565 32.0705271,6.76907294" id="Fill-246"></path>
                        <path d="M31.5113564,5.2242786 C31.1322999,5.00922027 30.8553544,4.72115136 30.665079,4.34517177 C30.5136556,4.04518277 30.5046898,3.59072924 30.6416682,3.18743277 C30.9156249,2.44789036 31.4839607,1.82953555 32.1793129,1.50669971 C31.8650097,2.06793741 31.9716038,2.81343987 32.0597681,3.431298 C32.0712245,3.50977195 32.0821827,3.58675588 32.0916467,3.66125646 C32.189773,4.38242206 31.9950147,4.90740281 31.5113564,5.2242786" id="Fill-248"></path>
                        <path d="M36.1446132,0.25513965 C35.64651,0.633602591 35.4472687,1.33688806 35.2818984,1.92047593 C35.2609781,1.99447983 35.2400577,2.06699373 35.2196355,2.13752095 C35.0223866,2.81696623 34.6413376,3.20784593 34.0869487,3.30022665 C33.8344104,2.95851733 33.7019149,2.59396116 33.6819908,2.187188 C33.6655534,1.86037879 33.8369009,1.45261229 34.1183292,1.14765659 C34.6562807,0.59486229 35.3924773,0.271033107 36.1446132,0.25513965" id="Fill-250"></path>
                        <path d="M34.8219997,4.45597897 C35.3514834,4.7688814 35.9521959,5.12300748 36.5563952,5.12300748 C36.6340993,5.12300748 36.709811,5.11704744 36.7835303,5.10512735 C36.2470731,5.65841831 35.4834808,5.99764428 34.75625,5.99764428 C34.697972,5.99764428 34.6406901,5.99516093 34.5834082,5.99069089 C34.1391001,5.95642063 33.7102332,5.77215586 33.463174,5.50941715 C33.1428936,5.16671449 32.9456447,4.77285476 32.8614653,4.30598447 C33.0960719,4.12122303 33.3575761,4.02784897 33.6390045,4.02784897 C33.9333835,4.02784897 34.2596411,4.12966643 34.6078153,4.33032132 C34.6770516,4.37055164 34.7487785,4.41276863 34.8219997,4.45597897" id="Fill-252"></path>
                        <path d="M62.4450625,59.3021629 L62.5172875,59.1839553 C60.4915016,57.9626425 57.0530948,57.4232583 53.7282556,56.9017543 C51.5341108,56.5580583 49.4624994,56.2327391 47.8217473,55.7296118 C43.6486383,54.5952163 39.3539921,52.8434594 34.3032251,50.215079 L34.2389698,50.3382532 C39.2987026,52.9711037 43.6023147,54.726834 47.7823972,55.8627195 C49.4311189,56.3688268 51.5077114,56.694146 53.7063391,57.0388353 C57.0177295,57.557856 60.4426874,58.0952535 62.4450625,59.3021629" id="Fill-254"></path>
                        <path d="M53.7406584,57.0744466 L53.7585901,56.9373655 C49.3214864,56.3602344 44.7444156,55.0217073 39.7663718,52.8457937 C35.4532957,50.9544724 30.9698684,48.7199517 27.3994643,45.207001 L27.3018361,45.3063351 C30.8881794,48.8341859 35.3850556,51.0761566 39.7105842,52.9729414 C44.7015788,55.1538217 49.2901059,56.4958254 53.7406584,57.0744466" id="Fill-256"></path>
                        <path d="M37.4370417,51.9360423 L37.4923312,51.8088947 C29.7458295,48.4772288 20.9074854,41.129485 19.3354715,30.4997424 L19.1974969,30.5201059 C20.7784767,41.2059723 29.6561709,48.589973 37.4370417,51.9360423" id="Fill-258"></path>
                        <path d="M20.0053706,34.0035046 L20.1378661,33.9612876 C18.6525222,29.2756979 18.7167775,24.1838316 20.3196738,19.6238995 C21.8099987,15.3247194 24.6551644,11.2187442 28.5473432,7.75049391 L28.4551941,7.64718644 C24.5445855,11.1308335 21.6864691,15.2566756 20.1881745,19.5782058 C18.5758143,24.1659515 18.5105628,29.289108 20.0053706,34.0035046" id="Fill-260"></path>
                        <path d="M21.2586482,17.3165173 C23.1733571,13.1886885 26.2695669,9.43187264 30.4616038,6.1498738 C32.445051,4.68419907 34.4573881,3.35510874 36.1643879,2.24803014 L36.0881781,2.13180924 C34.379684,3.23988118 32.3653544,4.57046152 30.3769263,6.03961294 C26.1659614,9.3365119 23.0563028,13.1102146 21.1326281,17.2584068 L21.2586482,17.3165173 Z" id="Fill-262"></path>
                        <path d="M60.6611057,58.4456049 L60.7034445,58.3134906 C59.6609144,57.981218 58.5715626,57.7060625 57.4652753,57.4934875 C56.4620953,57.3042561 55.4310216,57.1651883 54.4338189,57.0305906 C53.0530767,56.8443391 51.6255128,56.6521276 50.2472611,56.3223384 L50.2148844,56.4574328 C51.5996114,56.7882154 53.030662,56.9814202 54.414891,57.1681683 C55.4101013,57.3022694 56.4396807,57.4413371 57.4388758,57.6295752 C58.5401821,57.8406602 59.6240548,58.115319 60.6611057,58.4456049" id="Fill-264"></path>
                        <path d="M37.8616747,1.90711549 C37.9578087,1.92648564 38.050954,1.94535912 38.1391183,1.96075591 C38.3861775,2.00545625 38.5889055,2.02730976 38.760253,2.0283031 L38.7717094,2.0283031 C38.9116764,2.0283031 39.0411832,2.01439632 39.1776635,1.98310608 C39.1691958,1.99999288 39.1602299,2.01638301 39.150766,2.03277313 C39.0227534,2.27067831 38.837459,2.69433827 38.3413482,2.99929398 L38.3229184,3.00823405 C38.1107264,3.15624186 37.8586861,3.26252936 37.5379076,3.30673303 C37.4158723,3.32461317 37.2968257,3.3410033 37.177779,3.3410033 C36.9431724,3.3410033 36.7314785,3.29679962 36.5661082,3.21236563 C36.232379,3.04250431 35.9494564,2.7663555 35.7756183,2.45643309 C36.1113399,1.55547276 37.081147,1.74967093 37.8616747,1.90711549" id="Fill-266"></path>
                    </g>
                </g>
            </g>
        </g>
    </g>
</svg>