<?xml version="1.0" encoding="UTF-8"?>
<svg width="54px" height="14px" viewBox="0 0 54 14" version="1.1" xmlns="http://www.w3.org/2000/svg" xmlns:xlink="http://www.w3.org/1999/xlink">
    <!-- Generator: Sketch 42 (36781) - http://www.bohemiancoding.com/sketch -->
    <title>Page 1</title>
    <desc>Created with Sketch.</desc>
    <defs>
        <polygon id="path-1" points="0 10.2070364 0 0.00618181818 9.98406722 0.00618181818 9.98406722 10.2070364 6.4695649e-16 10.2070364"></polygon>
        <polygon id="path-3" points="2.1709968 0.1122 2.1709968 1.59438182 0.0766542788 1.59438182 0.0766542788 0.1122 2.1709968 0.1122"></polygon>
    </defs>
    <g id="Page-1" stroke="none" stroke-width="1" fill="#000000" fill-rule="evenodd">
        <g id="Home-–-v2---iP6---footer" transform="translate(-253.000000, -3235.000000)">
            <g id="Page-1" transform="translate(253.000000, 3235.000000)">
                <path d="M43.5838282,2.96969091 C43.0240729,2.65569091 42.1482566,2.49696364 40.9500473,2.49696364 C40.357727,2.49696364 39.7621502,2.54478182 39.1645833,2.63805455 C38.726042,2.70550909 38.6808129,2.71678182 38.4085337,2.77641818 C37.8478738,2.89878182 37.7613957,3.46296364 37.7613957,3.46296364 L37.5813839,4.20696364 C37.4793471,4.68296364 37.7489125,4.66314545 37.8692219,4.62623636 C38.1140018,4.55205455 38.2466135,4.47841818 38.7459428,4.36478182 C39.2230193,4.25569091 39.7274142,4.17441818 40.1297723,4.17769091 C40.7199216,4.17769091 41.1685943,4.2426 41.4669254,4.36769091 C41.7652566,4.49841818 41.9132462,4.72132727 41.9132462,5.04005455 C41.9141508,5.11569091 41.9159599,5.18714545 41.8888225,5.24969091 C41.8642178,5.30787273 41.8171796,5.36441818 41.6760648,5.38350909 C40.8338989,5.43387273 40.2294573,5.51114545 39.5016306,5.61769091 C38.7833925,5.71932727 38.1548889,5.89350909 37.6295077,6.1346 C37.0693905,6.38423636 36.650569,6.71841818 36.3616455,7.14169091 C36.0805014,7.56714545 35.9392057,8.08205455 35.9383012,8.68878182 C35.9383012,9.26205455 36.1434604,9.72987273 36.5400291,10.0929636 C36.9414826,10.4509636 37.4636073,10.6286 38.0953674,10.6286 C38.490127,10.6256909 38.7989513,10.5971455 39.020212,10.5416909 C39.2394827,10.4860545 39.4786542,10.4069636 39.7308517,10.2971455 C39.9195475,10.2178727 40.1230784,10.1033273 40.338188,9.95950909 C40.5532976,9.81514545 40.7021918,9.71296364 40.8934204,9.58714545 L40.9002953,9.59896364 L40.8465631,9.83732727 C40.8462013,9.83969091 40.8431257,9.84096364 40.8431257,9.84332727 L40.8447539,9.84769091 C40.7834233,10.1349636 40.9551129,10.3738727 41.2382471,10.4020545 L41.2418654,10.4069636 L41.266651,10.4069636 L41.2677365,10.4082364 C41.4557086,10.4082364 42.1008565,10.4080545 42.4022632,10.4069636 L42.6128499,10.4069636 C42.6265996,10.4069636 42.6282278,10.4027818 42.6334744,10.3995091 C42.9227597,10.3638727 43.1999236,10.1271455 43.2650535,9.84332727 L44.341687,5.1726 C44.3664726,5.06296364 44.3861925,4.93587273 44.3977711,4.79005455 C44.4111589,4.64241818 44.4270796,4.52114545 44.4223757,4.43350909 C44.4247277,3.77241818 44.1421362,3.28387273 43.5838282,2.96969091 M40.9751947,8.53478182 C40.7921073,8.65078182 40.5988885,8.74987273 40.3962622,8.83441818 C40.1241639,8.9446 39.8659962,9.0026 39.6273675,9.0026 C39.2608308,9.0026 38.979144,8.9506 38.78882,8.83896364 C38.5981341,8.73332727 38.4982682,8.54969091 38.5013438,8.28696364 C38.5013438,7.98350909 38.5711775,7.74805455 38.7153679,7.56350909 C38.8608247,7.38569091 39.076658,7.24278182 39.3442333,7.13605455 C39.6107232,7.04532727 39.9381819,6.9706 40.3161162,6.91714545 C40.6524398,6.8746 41.3171267,6.79750909 41.4019764,6.79696364 C41.4871881,6.79623636 41.5438149,6.74914545 41.5058225,6.97678182 C41.4889972,7.07587273 41.2970449,7.86750909 41.2089386,8.22769091 C41.1834294,8.33550909 41.0406864,8.49278182 40.9751947,8.53478182" id="Fill-1" fill="#000000"></path>
                <path d="M25.0605759,2.60036364 C24.7446959,2.60036364 24.3303974,2.85727273 24.134284,3.16763636 C24.134284,3.16763636 22.0215423,6.808 21.8140311,7.17181818 C21.7013202,7.36727273 21.5869811,7.24290909 21.5678039,7.17018182 C21.552426,7.08163636 20.9130675,3.19163636 20.9130675,3.19163636 C20.8412437,2.87836364 20.5157751,2.60963636 20.1085322,2.61090909 L18.791099,2.61272727 C18.4735907,2.61272727 18.2754873,2.86854545 18.3462256,3.17745455 C18.3462256,3.17745455 19.3532063,8.91418182 19.5495006,10.2632727 C19.6473763,11.0094545 19.5391883,11.1418182 19.5391883,11.1418182 L18.2338765,13.4296364 C18.0426479,13.7398182 18.1472175,13.9938182 18.4632785,13.9938182 L19.9902129,13.9925455 C20.3062739,13.9925455 20.7249144,13.7398182 20.9130675,13.4290909 L26.7863375,3.446 C26.7863375,3.446 27.3482638,2.59309091 26.8299383,2.60036364 C26.4766086,2.60527273 25.0605759,2.60036364 25.0605759,2.60036364" id="Fill-3" fill="#000000"></path>
                <g id="Group-7" transform="translate(0.000000, 0.175727)">
                    <mask id="mask-2" fill="#000000">
                        <use xlink:href="#path-1"></use>
                    </mask>
                    <g id="Clip-6"></g>
                    <path d="M6.51946722,4.45376364 C6.07495562,4.78049091 5.45893528,4.94412727 4.65910387,4.94412727 L4.29763291,4.94412727 C3.97903912,4.94412727 3.778041,4.69030909 3.84805565,4.37830909 L4.29184358,2.45630909 C4.35968723,2.14667273 4.67737643,1.88958182 4.99597021,1.89267273 L5.47847425,1.88958182 C6.04184792,1.88958182 6.47043887,1.98667273 6.75936236,2.1794 C7.04430569,2.36703636 7.18903881,2.6634 7.18415407,3.06176364 C7.19265714,3.66176364 6.96633073,4.12612727 6.51946722,4.45376364 M9.70305311,1.4914 C9.5197848,1.13194545 9.24497279,0.840309091 8.89453772,0.619945455 C8.53089576,0.394490909 8.10791321,0.239036364 7.61491602,0.1454 C7.11884325,0.0559454545 6.5391871,0.0119454545 5.87468117,0.00612727273 L2.79693136,0.00830909091 C2.47707117,0.0119454545 2.16372396,0.264309091 2.08991007,0.573218182 L0.0144371287,9.64030909 C-0.0570248494,9.95049091 0.142887773,10.2070364 0.461481554,10.2070364 L1.9357693,10.2070364 C2.25472491,10.2070364 2.57060495,9.9574 2.64206693,9.64030909 L3.15026109,7.43994545 C3.21810474,7.13212727 3.53326111,6.87758182 3.85275948,6.87758182 L4.27429469,6.87758182 C6.07748845,6.87576364 7.47597223,6.50503636 8.48114375,5.76303636 C9.48468702,5.02267273 9.98654911,4.04085455 9.98401628,2.82703636 C9.98654911,2.29376364 9.89464358,1.84758182 9.70305311,1.4914" id="Fill-5" fill="#000000" mask="url(#mask-2)"></path>
                </g>
                <path d="M33.289088,4.6666 C32.8474711,4.98950909 32.2272897,5.15150909 31.4294484,5.15150909 L31.0625499,5.15150909 C30.7450416,5.15532727 30.5402442,4.89750909 30.6155055,4.58805455 L31.0578461,2.66314545 C31.1236996,2.35878182 31.4459117,2.09969091 31.7587162,2.10223636 L32.2433912,2.09969091 C32.8092977,2.10223636 33.2324612,2.19732727 33.5246412,2.38641818 C33.8121173,2.57787273 33.9512421,2.8746 33.953594,3.26987273 C33.9548604,3.8726 33.732876,4.33641818 33.289088,4.6666 M36.4714075,1.70023636 C36.2877774,1.34096364 36.0102516,1.05169091 35.6596356,0.826418182 C35.2997929,0.601690909 34.8722875,0.444963636 34.377662,0.353509091 C33.8882832,0.267327273 33.3062751,0.217872727 32.6433974,0.216418182 L29.5585919,0.217872727 C29.2410836,0.223509091 28.9293646,0.474054545 28.8560935,0.782781818 L26.7820679,9.8526 C26.7064448,10.1609636 26.9128704,10.4176909 27.2245894,10.4160545 L28.7048474,10.4131455 C29.0187373,10.4160545 29.3384166,10.1609636 29.4125923,9.8526 L29.9130071,7.65150909 C29.9832027,7.34314545 30.3021583,7.08478182 30.6212948,7.08914545 L31.0419254,7.08914545 C32.8474711,7.08914545 34.2470404,6.71641818 35.2494981,5.97441818 C36.2492422,5.22878182 36.7527325,4.2506 36.7527325,3.03405455 C36.749476,2.50278182 36.6593797,2.05532727 36.4714075,1.70023636" id="Fill-8" fill="#FFFFFF"></path>
                <path d="M16.8097931,2.9624 C16.2498568,2.6484 15.3744023,2.49003636 14.176193,2.49003636 C13.5835109,2.49003636 12.9882959,2.53730909 12.3903672,2.63076364 C11.9512831,2.69785455 11.9069586,2.70912727 11.6344985,2.76894545 C11.0734768,2.89185455 10.9871796,3.45549091 10.9871796,3.45549091 L10.8071678,4.20003636 C10.7054928,4.67567273 10.9754201,4.65585455 11.0950058,4.61894545 C11.3394239,4.54476364 11.4727592,4.47130909 11.9720885,4.35730909 C12.4486223,4.24876364 12.95356,4.16767273 13.3553753,4.1704 C13.9460674,4.1704 14.3941973,4.23512727 14.6925284,4.36003636 C14.9912214,4.49094545 15.1383064,4.71421818 15.1383064,5.03276364 C15.1401156,5.1084 15.1415629,5.18021818 15.1151491,5.24221818 C15.0901827,5.30094545 15.0424207,5.35712727 14.9014869,5.37603636 C14.0602256,5.42712727 13.4561457,5.50403636 12.7270527,5.61058182 C12.0086336,5.7124 11.3804919,5.88658182 10.8549297,6.12749091 C10.2948126,6.37712727 9.87635293,6.71167273 9.58797219,7.13476364 C9.30574261,7.55985455 9.16480873,8.07494545 9.16426598,8.68185455 C9.16426598,9.25476364 9.3696061,9.72294545 9.7656321,10.0856727 C10.1672665,10.4438545 10.6890294,10.6214909 11.3206086,10.6214909 C11.71573,10.6187636 12.0243734,10.5896727 12.2463578,10.5345818 C12.4652666,10.4785818 12.704619,10.4000364 12.9559119,10.2902182 C13.1453314,10.2109455 13.3485005,10.0956727 13.563791,9.95221818 C13.7783579,9.80821818 13.9281566,9.70585455 14.1201089,9.58003636 L14.1258983,9.59185455 L14.0721661,9.82985455 C14.0716233,9.83221818 14.0687287,9.83367273 14.0687287,9.83658182 L14.0708997,9.84021818 C14.0093881,10.1282182 14.1807159,10.3669455 14.464031,10.3945818 L14.4676493,10.4000364 L14.492254,10.4000364 L14.4931586,10.4018545 C14.6814925,10.4018545 15.3270022,10.4007636 15.6276853,10.4000364 L15.8384529,10.4000364 C15.8525644,10.4000364 15.8545545,10.3953091 15.8588965,10.3922182 C16.1489054,10.3556727 16.4249839,10.1194909 16.4908374,9.83658182 L17.5674709,5.16549091 C17.5918947,5.05585455 17.6117955,4.92894545 17.6226504,4.78330909 C17.6369428,4.63494545 17.6526826,4.51421818 17.6485215,4.42676364 C17.6508734,3.76512727 17.3677392,3.27676364 16.8097931,2.9624 M14.2009786,8.52785455 C14.0180721,8.64367273 13.8250343,8.7424 13.6224079,8.82712727 C13.3503097,8.93694545 13.0908755,8.99530909 12.8529705,8.99530909 C12.4873384,8.99530909 12.2051088,8.94312727 12.014423,8.83203636 C11.823918,8.72621818 11.7236903,8.54258182 11.7267659,8.27949091 C11.7267659,7.97676364 11.7971424,7.7404 11.9413327,7.55621818 C12.0869704,7.37821818 12.3017182,7.23494545 12.5696554,7.12858182 C12.8365071,7.03730909 13.1650513,6.96367273 13.5419001,6.91003636 C13.8780428,6.86749091 14.5434533,6.79076364 14.6281222,6.78949091 C14.7124292,6.78930909 14.7694179,6.74167273 14.7314254,6.96930909 C14.7149621,7.06821818 14.5228288,7.86058182 14.4349035,8.2204 C14.4084897,8.32894545 14.2655657,8.48603636 14.2009786,8.52785455" id="Fill-10" fill="#000000"></path>
                <path d="M48.6673439,0.290890909 L47.3481015,0.290890909 C47.3473778,0.290890909 47.3464733,0.291254545 47.3461114,0.291254545 L47.3452068,0.290890909 C47.0432574,0.290890909 46.7369659,0.523436364 46.6513924,0.819072727 C46.647955,0.831254545 46.6419848,0.842527273 46.639271,0.855072727 C46.639271,0.855072727 46.6077916,0.999254545 46.5531548,1.24889091 L44.7412771,9.50325455 C44.6991236,9.68998182 44.6712624,9.81143636 44.6627594,9.84325455 L44.6663777,9.8478 C44.6035997,10.1361636 44.776013,10.3748909 45.059509,10.4014364 L45.0631274,10.4070727 L46.4324836,10.4070727 C46.7326239,10.4070727 47.0369253,10.1767091 47.1252125,9.88489091 C47.1293736,9.87052727 47.1360675,9.85743636 47.139324,9.84325455 L49.1160166,0.854709091 L49.1131219,0.853618182 C49.1802419,0.545981818 48.983043,0.290890909 48.6673439,0.290890909" id="Fill-12" fill="#000000"></path>
                <path d="M51.1650033,2.12096364 C51.1201361,2.13296364 51.0711077,2.14296364 51.0173756,2.1506 C50.9638243,2.15805455 50.9157005,2.16241818 50.8742707,2.16241818 C50.7270047,2.16241818 50.6159221,2.1226 50.5397563,2.04350909 C50.4634095,1.96441818 50.425598,1.83714545 50.425598,1.6626 L50.425598,0.895872727 L50.2622305,0.895872727 L50.2622305,0.691690909 L50.425598,0.691690909 L50.425598,0.277145455 L50.6667596,0.277145455 L50.6667596,0.691690909 L51.1650033,0.691690909 L51.1650033,0.895872727 L50.6667596,0.895872727 L50.6667596,1.55296364 C50.6667596,1.62841818 50.6691115,1.68769091 50.6718252,1.73041818 C50.6756245,1.77314545 50.687565,1.81278182 50.7081894,1.84969091 C50.7266429,1.88423636 50.752514,1.90932727 50.7856217,1.92514545 C50.8189103,1.94150909 50.869205,1.94932727 50.9368678,1.94932727 C50.9761266,1.94932727 51.0173756,1.94332727 51.0604337,1.93169091 C51.1027681,1.92023636 51.1338857,1.9106 51.152701,1.90278182 L51.1650033,1.90278182 L51.1650033,2.12096364" id="Fill-14" fill="#000000"></path>
                <g id="Group-18" transform="translate(51.380258, 0.539364)">
                    <mask id="mask-4" fill="#000000">
                        <use xlink:href="#path-3"></use>
                    </mask>
                    <g id="Clip-17"></g>
                    <path d="M2.17112344,1.59438182 L1.92978097,1.59438182 L1.92978097,0.773109091 C1.92978097,0.711472727 1.9268863,0.651290909 1.92109698,0.593654545 C1.91548857,0.536018182 1.90336717,0.4902 1.88581828,0.455472727 C1.86591748,0.418563636 1.83787544,0.390381818 1.80096849,0.371654545 C1.76406154,0.352745455 1.71123396,0.343290909 1.64176206,0.343290909 C1.57373749,0.343290909 1.50661751,0.360381818 1.43877386,0.394381818 C1.37093021,0.428381818 1.30362931,0.471290909 1.23596657,0.523836364 C1.2384994,0.544018182 1.24030857,0.566927273 1.24211773,0.593290909 C1.24410781,0.619472727 1.24483148,0.645290909 1.24483148,0.671290909 L1.24483148,1.59438182 L1.00366991,1.59438182 L1.00366991,0.773109091 C1.00366991,0.709472727 1.00041342,0.649109091 0.994985927,0.591654545 C0.989558435,0.534381818 0.977256119,0.488927273 0.959707229,0.454381818 C0.939625508,0.417290909 0.91140255,0.389654545 0.874495604,0.370927273 C0.837769575,0.352563636 0.784761069,0.343290909 0.715289172,0.343290909 C0.649435602,0.343290909 0.583762949,0.359836364 0.516823881,0.392563636 C0.450427562,0.424927273 0.384573992,0.466745455 0.31835859,0.517472727 L0.31835859,1.59438182 L0.0766542788,1.59438182 L0.0766542788,0.1522 L0.31835859,0.1522 L0.31835859,0.3122 C0.393981645,0.249472727 0.469061951,0.200381818 0.543961341,0.164927273 C0.61940348,0.130018182 0.69828303,0.1122 0.783494655,0.1122 C0.880827678,0.1122 0.963868306,0.132745455 1.03207379,0.174018182 C1.10009836,0.215472727 1.15075495,0.272563636 1.1844054,0.345836364 C1.28173842,0.263109091 1.37093021,0.203290909 1.45161892,0.166927273 C1.5319458,0.130563636 1.61788109,0.1122 1.70960571,0.1122 C1.86736481,0.1122 1.98369405,0.1602 2.05859344,0.256018182 C2.13349283,0.352018182 2.17112344,0.486018182 2.17112344,0.658381818 L2.17112344,1.59438182" id="Fill-16" fill="#000000" mask="url(#mask-4)"></path>
                </g>
            </g>
        </g>
    </g>
</svg>
