<?xml version="1.0" encoding="UTF-8"?>
<svg width="92px" height="39px" viewBox="0 0 92 39" version="1.1" xmlns="http://www.w3.org/2000/svg" xmlns:xlink="http://www.w3.org/1999/xlink">
    <!-- Generator: Sketch 42 (36781) - http://www.bohemiancoding.com/sketch -->
    <title>Logo Simplified</title>
    <desc>Created with Sketch.</desc>
    <defs>
        <polygon id="path-1" points="4.18194969 0.316014706 0.453345912 0.316014706 0.453345912 27.0411088 4.18194969 27.0411088 4.18194969 0.316014706"></polygon>
    </defs>
    <g id="Symbols" stroke="none" stroke-width="1" fill="none" fill-rule="evenodd">
        <g id="Header-0" transform="translate(-142.000000, -13.000000)">
            <g id="Group-2">
                <g id="Logo-Simplified" transform="translate(142.000000, 13.000000)">
                    <polygon id="Fill-1" fill="#16407D" points="0 3.42615 0.0237232704 27.3589588 9.02178616 27.3492088 9.79828931 25.6968706 3.72513208 25.7031794 3.70314465 3.42270882"></polygon>
                    <path d="M21.5376629,26.8603897 C19.5628453,27.3513309 18.3784176,27.5979485 17.9838013,27.5979485 C17.1193484,27.5990956 16.6865434,26.6453162 16.6848075,24.7360368 L16.6790214,18.8630956 C14.9015119,19.1584632 14.0144931,20.4689779 14.0162289,22.7934926 C14.0185434,24.8002721 14.5005308,25.8154191 15.4633484,25.8383603 C15.7596,25.8383603 16.0801535,25.7769926 16.4267447,25.6542574 L16.055273,27.4528456 C15.4101157,27.6736544 14.6770088,27.7849191 13.8576881,27.7854926 C12.7149208,27.7866397 11.8203799,27.2985662 11.1734868,26.320125 C10.6012352,25.4885074 10.3148201,24.4854044 10.3136629,23.3108162 C10.311927,21.5489338 10.9310465,20.0434191 12.1716,18.7942721 C13.3375119,17.6431985 14.8390214,16.9073603 16.6767069,16.5873309 L16.6749711,15.1190956 C16.6743925,14.1647426 16.5864428,13.4799485 16.4140151,13.0641397 C16.1409082,12.3546838 15.610317,12.0002426 14.8205057,12.0008162 C13.8576881,12.0019632 12.6599522,12.358125 11.2296126,13.0693015 L11.4494868,10.9397868 C12.7820403,10.1070221 14.0897132,9.68949265 15.3736629,9.68777206 C18.6075497,9.68490441 20.2265182,11.7387132 20.2305686,15.8497721 L20.2392478,24.2192868 C20.240405,25.4667132 20.6726314,26.3470809 21.5376629,26.8603897" id="Fill-2" fill="#16407D"></path>
                    <polygon id="Fill-4" fill="#16407D" points="46.1624755 26.6898221 42.4604881 27.6843221 40.4821987 12.0860426 36.9416453 26.9920721 34.3506013 27.6923515 30.5207396 12.1324985 28.8699472 27.3304544 26.4629031 27.3327485 28.8109283 5.45374853 28.4394566 3.912675 32.2519597 2.95430735 36.2681358 19.8349985 39.6241107 5.55296912 39.3267019 3.90177794 43.1762365 2.94398382"></polygon>
                    <path d="M52.1246541,27.3079147 L48.4961509,27.3113559 L48.4787925,10.1697088 L52.106717,9.24862059 L52.1246541,27.3079147 Z M52.1020881,4.40344412 C52.1026667,5.08881176 51.9429686,5.71281176 51.6224151,6.27601765 C51.2277987,6.96138529 50.7220881,7.30492941 50.1058616,7.30550294 C49.5370818,7.30607647 49.0550943,6.97572353 48.660478,6.31559118 C48.3381887,5.75295882 48.1779119,5.15419412 48.1773333,4.51757647 C48.1767547,3.85687059 48.3358742,3.23229706 48.6564277,2.64500294 C49.0261635,1.95963529 49.5191447,1.61666471 50.1365283,1.61609118 C50.7296101,1.61551765 51.2231698,1.94472353 51.6189434,2.60542941 C51.9400755,3.16806176 52.1015094,3.7674 52.1020881,4.40344412 L52.1020881,4.40344412 Z" id="Fill-6" fill="#16407D"></path>
                    <polygon id="Fill-8" fill="#16407D" points="58.6419572 27.3014338 54.9388126 27.304875 54.9133535 1.50063971 58.6153409 0.579551471"></polygon>
                    <g id="Group-12" transform="translate(60.754717, 0.257629)">
                        <mask id="mask-2" fill="white">
                            <use xlink:href="#path-1"></use>
                        </mask>
                        <g id="Clip-11"></g>
                        <polygon id="Fill-10" fill="#16407D" mask="url(#mask-2)" points="4.18194969 27.0376676 0.478805031 27.0411088 0.453345912 1.23687353 4.15533333 0.315785294"></polygon>
                    </g>
                    <path d="M75.4444553,18.8060294 C75.4398264,13.9121029 74.6598516,11.466 73.1045308,11.4671471 C71.4994491,11.4688676 70.6998013,13.8432794 70.7044302,18.5903824 C70.7090591,23.4848824 71.5133358,25.9309853 73.1184176,25.9292647 C74.6737384,25.9275441 75.4496629,23.5537059 75.4444553,18.8060294 M79.3692101,18.5450735 C79.3715245,20.8455 78.9167321,22.8402353 78.0054113,24.5298529 C76.8719019,26.6111912 75.2430969,27.6527206 73.1201535,27.6544412 C70.9966314,27.6567353 69.3666692,26.6673971 68.2291094,24.6858529 C67.3137384,23.0719412 66.8554742,21.1271029 66.8531597,18.8513382 C66.8508453,16.6002353 67.3310969,14.5928824 68.2921786,12.8304265 C69.4499899,10.6997647 71.0660654,9.63357353 73.1398264,9.63185294 C75.1881283,9.62955882 76.7937887,10.6561765 77.9568075,12.7105588 C78.8964805,14.3737941 79.3668956,16.3192059 79.3692101,18.5450735" id="Fill-13" fill="#16407D"></path>
                    <path d="M91.7095346,27.2695456 L88.0063899,27.2729868 L88.0052327,25.8414574 C86.8213836,27.0171926 85.6120755,27.6056338 84.3778868,27.6067809 C82.9944151,27.6085015 82.0061384,26.7160897 81.412478,24.9301191 C81.0161258,23.7561044 80.8176604,22.3004868 80.8159245,20.5626926 L80.8055094,10.4318691 L84.5080755,9.51078088 L84.5190692,20.6693691 C84.5219623,23.4349279 85.0166792,24.8165603 86.0043774,24.8154132 C86.6709434,24.8148397 87.3363522,24.3497074 88.0029182,23.4188691 L87.9896101,10.4249868 L91.6921761,9.50389853 L91.7095346,27.2695456 Z" id="Fill-15" fill="#16407D"></path>
                    <g id="Group-4" transform="translate(18.000000, 32.000000)" fill="#16407D">
                        <path d="M5.08534591,2.13085 C5.08534591,2.69176176 4.92159748,3.13567353 4.59467925,3.46315882 C4.26776101,3.79064412 3.82454088,3.9541 3.26501887,3.9541 C2.91322013,3.9541 2.58283019,3.89445294 2.27500629,3.77630588 L2.15233962,3.42129118 C2.35948428,3.45226176 2.55158491,3.46774706 2.72748428,3.46774706 C3.38132075,3.46774706 3.70823899,3.03645294 3.70823899,2.17271765 C3.70823899,1.32217353 3.25865409,0.896614706 2.35948428,0.896614706 L2.02041509,0.896614706 L2.02041509,6.56251176 L0.784490566,6.56251176 L0.784490566,0.466467647 L3.34023899,0.466467647 C3.83727044,0.466467647 4.24924528,0.616158824 4.57616352,0.915541176 C4.91581132,1.23327647 5.08534591,1.63876176 5.08534591,2.13085" id="Fill-17"></path>
                        <path d="M9.2071195,6.49701471 L8.04467925,6.62835294 C7.90696855,6.64039706 7.80050314,6.56870588 7.72586164,6.41327941 C7.66973585,6.28194118 7.64138365,6.12880882 7.64138365,5.95502941 L7.64138365,4.31875 C6.79255346,4.36233824 6.36784906,4.74144118 6.36784906,5.45605882 C6.36784906,5.88792647 6.55358491,6.10414706 6.92447799,6.10414706 C7.13798742,6.10414706 7.34281761,6.06686765 7.53781132,5.99230882 L7.43423899,6.47866176 C7.07549686,6.61516176 6.71733333,6.68398529 6.35859119,6.68398529 C6.00042767,6.68398529 5.70128302,6.5905 5.46231447,6.40352941 C5.19846541,6.20394118 5.06654088,5.92979412 5.06654088,5.58051471 C5.06654088,5.05688235 5.37899371,4.63648529 6.00332075,4.31875 C6.47084277,4.08188235 7.01647799,3.9385 7.64138365,3.88860294 L7.64138365,3.55194118 C7.64138365,2.93482353 7.34455346,2.62626471 6.75089308,2.62626471 C6.37826415,2.62626471 5.93967296,2.70426471 5.43396226,2.86026471 L5.50050314,2.37391176 C5.99059119,2.17432353 6.4968805,2.07452941 7.01879245,2.07452941 C8.2767044,2.07452941 8.90566038,2.60332353 8.90566038,3.66091176 L8.90566038,5.66711765 C8.90566038,6.13970588 9.00576101,6.41614706 9.2071195,6.49701471" id="Fill-19"></path>
                        <path d="M13.2534994,2.24286029 L12.9520403,3.20581618 C12.8131723,3.056125 12.640166,2.98156618 12.4330214,2.98156618 C12.0493987,2.97525735 11.7346314,3.19950735 11.4898767,3.65431618 L11.4898767,6.56268382 L10.2261786,6.56268382 L10.2261786,2.24286029 L11.4898767,2.03753676 L11.4898767,2.95346324 C11.5963421,2.71659559 11.7444679,2.51758088 11.9330969,2.35527206 C12.1529711,2.16199265 12.3855748,2.06506618 12.6309082,2.06506618 C12.8698767,2.06506618 13.0776,2.12471324 13.2534994,2.24286029" id="Fill-21"></path>
                        <path d="M16.2434415,3.73885441 L16.2434415,3.58916324 C16.2434415,2.86651618 16.0062088,2.50461912 15.5317434,2.50461912 C15.2406994,2.50461912 15.0133031,2.64513382 14.8483975,2.92558971 C14.7158943,3.14983971 14.6429887,3.42111912 14.6302591,3.73885441 L16.2434415,3.73885441 Z M17.5071396,4.16900147 L14.6302591,4.16900147 L14.6302591,4.30894265 C14.6302591,5.50016324 15.149278,6.09491324 16.1867371,6.09491324 C16.4887748,6.09491324 16.8440453,6.03297206 17.2525484,5.90794265 L17.111366,6.421825 C16.5512654,6.59675147 15.9761208,6.67475147 15.3853535,6.655825 C14.7245736,6.63689853 14.217127,6.431575 13.8618566,6.03870735 C13.5065862,5.64641324 13.3289509,5.13195735 13.3289509,4.49591324 C13.3289509,3.81685441 13.5268377,3.25250147 13.9231899,2.80400147 C14.3507874,2.31764853 14.9166742,2.07447206 15.6208503,2.07447206 C16.8781836,2.07447206 17.5071396,2.77245735 17.5071396,4.16900147 L17.5071396,4.16900147 Z" id="Fill-23"></path>
                        <path d="M22.3836604,6.56256912 L21.1193836,6.56256912 L21.1193836,3.99430441 C21.1193836,3.225775 20.8931447,2.84151029 20.4406667,2.84151029 C20.1322642,2.84151029 19.8522138,2.96023088 19.6010943,3.19767206 L19.6010943,6.56256912 L18.3373962,6.56256912 L18.3373962,2.24274559 L19.6010943,2.03742206 L19.6010943,2.68206912 C20.1085409,2.289775 20.6194591,2.09362794 21.1332704,2.09362794 C21.5845912,2.09362794 21.916717,2.28690735 22.1296478,2.67403971 C22.2991824,2.98030441 22.3836604,3.37374559 22.3836604,3.85493676 L22.3836604,6.56256912 Z" id="Fill-25"></path>
                        <path d="M26.2127119,5.95485735 L26.0993031,6.46873971 C25.4830767,6.59319559 25.027127,6.65628382 24.7314541,6.65628382 C24.0336428,6.65628382 23.6847371,6.27603382 23.6847371,5.51496029 L23.6847371,2.56071029 L23.1095925,2.56071029 L23.1095925,2.15866618 L23.6847371,2.15866618 L23.6847371,1.12115147 L24.9484352,0.915254412 L24.9484352,2.15866618 L26.0524352,2.15866618 L26.0524352,2.56071029 L24.9484352,2.56071029 L24.9484352,5.13184265 C24.9484352,5.44957794 24.9866239,5.66465147 25.061844,5.77706324 C25.1625233,5.92675441 25.3667748,6.00131324 25.6751774,6.00131324 C25.8319824,6.00131324 26.0113535,5.98640147 26.2127119,5.95485735" id="Fill-27"></path>
                        <path d="M27.9576453,0.111452941 C27.6683371,0.641394118 27.523683,1.00902647 27.523683,1.21435 C27.523683,1.61352647 27.6590792,1.87849706 27.9292931,2.00926176 L27.2314818,2.63555588 C26.891834,2.47382059 26.7222994,2.22720294 26.7222994,1.89685 C26.7222994,1.61065882 26.8067774,1.28030588 26.9768906,0.905791176 C27.1464252,0.53185 27.3385258,0.23935 27.5520352,0.0271441176 L27.9576453,0.111452941 Z" id="Fill-29"></path>
                        <path d="M31.9090742,5.22561471 C31.9090742,5.71770294 31.6984579,6.09221765 31.2772252,6.34743824 C30.9317912,6.55907059 30.4943572,6.66517353 29.9666591,6.66517353 C29.5824579,6.66517353 29.1513887,6.58430588 28.6740302,6.42199706 L28.5421057,5.90754118 C28.956395,6.09508529 29.3782063,6.18857059 29.8058038,6.18857059 C30.0447723,6.18857059 30.2490239,6.13867353 30.4191371,6.03887941 C30.6262818,5.91442353 30.7304327,5.74580588 30.7304327,5.53417353 C30.7304327,5.28526176 30.5418038,5.05699706 30.1639673,4.85167353 C29.8121686,4.67674706 29.4603698,4.50239412 29.1079925,4.32804118 C28.7307346,4.07855588 28.5421057,3.77630588 28.5421057,3.42129118 C28.5421057,2.97852647 28.7370994,2.63555588 29.1265082,2.39295294 C29.4603698,2.18074706 29.8590365,2.07464412 30.3248226,2.07464412 C30.7148101,2.07464412 31.0729736,2.15551176 31.3998918,2.31782059 L31.5410742,2.84145294 C31.1262063,2.64817353 30.7674642,2.55124706 30.466005,2.55124706 C30.2646465,2.55124706 30.0945333,2.59540882 29.9568226,2.68201176 C29.7930742,2.78237941 29.7114893,2.92862941 29.7114893,3.12190882 C29.7114893,3.30887941 29.9001182,3.49585 30.2773761,3.68282059 C30.8936025,3.98220294 31.248873,4.16573235 31.3431874,4.23398235 C31.7204453,4.50239412 31.9090742,4.83274706 31.9090742,5.22561471" id="Fill-31"></path>
                    </g>
                    <path d="M57.501678,34.13085 C57.501678,34.6917618 57.3379296,35.1356735 57.0110113,35.4631588 C56.6840931,35.7906441 56.240873,35.9541 55.6813509,35.9541 C55.3289736,35.9541 54.9991623,35.8944529 54.6913384,35.7763059 L54.5686717,35.4212912 C54.7758164,35.4522618 54.9673384,35.4677471 55.1438164,35.4677471 C55.7976528,35.4677471 56.1245711,35.0364529 56.1245711,34.1727176 C56.1245711,33.3221735 55.6749862,32.8966147 54.7758164,32.8966147 L54.4361686,32.8966147 L54.4361686,38.5625118 L53.200244,38.5625118 L53.200244,32.4664676 L55.7565711,32.4664676 C56.2536025,32.4664676 56.6655774,32.6161588 56.9924956,32.9155412 C57.3315648,33.2332765 57.501678,33.6387618 57.501678,34.13085" id="Fill-33" fill="#16407D"></path>
                    <path d="M61.3689182,34.2428603 L61.0674591,35.2058162 C60.9285912,35.056125 60.7555849,34.9815662 60.5484403,34.9815662 C60.1648176,34.9752574 59.8500503,35.1995074 59.604717,35.6543162 L59.604717,38.5626838 L58.3415975,38.5626838 L58.3415975,34.2428603 L59.604717,34.0375368 L59.604717,34.9534632 C59.711761,34.7165956 59.8598868,34.5175809 60.0485157,34.3552721 C60.2683899,34.1619926 60.5009937,34.0650662 60.746327,34.0650662 C60.9852956,34.0650662 61.1924403,34.1247132 61.3689182,34.2428603" id="Fill-35" fill="#16407D"></path>
                    <path d="M63.2454868,38.5625691 L61.9817887,38.5625691 L61.9817887,34.2427456 L63.2454868,34.0374221 L63.2454868,38.5625691 Z M63.3305434,32.6724221 C63.3305434,32.8720103 63.2582164,33.0400544 63.1135623,33.1771279 C62.9689082,33.3142015 62.7964805,33.383025 62.595122,33.383025 C62.4064931,33.383025 62.2415874,33.3142015 62.0998264,33.1771279 C61.9580654,33.0400544 61.8874742,32.8777456 61.8874742,32.6913485 C61.8874742,32.4854515 61.9580654,32.3139662 62.0998264,32.1768926 C62.2415874,32.0398191 62.4151723,31.9709956 62.6234742,31.9709956 C62.8121031,31.9709956 62.9770088,32.0409662 63.1181912,32.1814809 C63.2593736,32.3219956 63.3305434,32.4854515 63.3305434,32.6724221 L63.3305434,32.6724221 Z" id="Fill-37" fill="#16407D"></path>
                    <path d="M68.4236403,38.5625691 L67.1593635,38.5625691 L67.1593635,34.7944809 C66.9018792,34.6510985 66.6507597,34.5794074 66.4054264,34.5794074 C66.0524704,34.5794074 65.7857283,34.8002162 65.6034642,35.2412603 C65.470961,35.5710397 65.4049987,35.9409662 65.4049987,36.3516132 C65.4049987,36.8115838 65.4773258,37.2067456 65.6219799,37.5359515 C65.8169736,37.9769956 66.1161182,38.2006721 66.5182566,38.2069809 C66.7381308,38.2069809 66.920395,38.1725691 67.0650491,38.1043191 L66.9522189,38.5528191 C66.731766,38.6342603 66.4239421,38.6744074 66.0275899,38.6744074 C65.398634,38.6744074 64.9056528,38.4599074 64.5469107,38.0309074 C64.2199925,37.6328779 64.056244,37.1167015 64.056244,36.4818044 C64.056244,35.8228191 64.2361937,35.2687897 64.5943572,34.8214368 C64.9843447,34.3362309 65.505678,34.0936279 66.1600931,34.0936279 C66.5182566,34.0936279 66.8515396,34.1716279 67.1593635,34.3270544 L67.1593635,31.9612456 L68.4236403,31.7559221 L68.4236403,38.5625691 Z" id="Fill-39" fill="#16407D"></path>
                    <path d="M72.0733208,35.7388544 L72.0733208,35.5891632 C72.0733208,34.8665162 71.8360881,34.5046191 71.3622013,34.5046191 C71.0711572,34.5046191 70.8431824,34.6451338 70.6788553,34.9255897 C70.5457736,35.1498397 70.4728679,35.4211191 70.460717,35.7388544 L72.0733208,35.7388544 Z M73.3375975,36.1690015 L70.460717,36.1690015 L70.460717,36.3089426 C70.460717,37.5001632 70.9791572,38.0949132 72.0166164,38.0949132 C72.3186541,38.0949132 72.6739245,38.0329721 73.0824277,37.9079426 L72.9412453,38.421825 C72.3811447,38.5967515 71.806,38.6747515 71.2152327,38.655825 C70.5550314,38.6368985 70.0470063,38.431575 69.6923145,38.0387074 C69.337044,37.6464132 69.1588302,37.1319574 69.1588302,36.4959132 C69.1588302,35.8168544 69.3572956,35.2525015 69.7530692,34.8040015 C70.1806667,34.3176485 70.7465535,34.0744721 71.4513082,34.0744721 C72.7086415,34.0744721 73.3375975,34.7724574 73.3375975,36.1690015 L73.3375975,36.1690015 Z" id="Fill-41" fill="#16407D"></path>
                </g>
            </g>
        </g>
    </g>
</svg>