<?xml version="1.0" encoding="UTF-8"?>
<svg width="19px" height="26px" viewBox="0 0 19 26" version="1.1" xmlns="http://www.w3.org/2000/svg" xmlns:xlink="http://www.w3.org/1999/xlink">
    <!-- Generator: Sketch 42 (36781) - http://www.bohemiancoding.com/sketch -->
    <title>Page 1</title>
    <desc>Created with Sketch.</desc>
    <defs>
        <polygon id="path-1" points="0 32 30.2542727 32 30.2542727 0.692233333 0 0.692233333"></polygon>
    </defs>
    <g id="Page-1" stroke="none" stroke-width="1" fill="none" fill-rule="evenodd">
        <g id="Home-–-v2---iP6---footer" transform="translate(-318.000000, -83.000000)">
            <g id="Header-0" transform="translate(0.000000, 65.000000)">
                <g id="Group-2" fill="#FFFFFF">
                    <rect id="Rectangle" x="0" y="0" width="375" height="64"></rect>
                </g>
                <g id="Page-1" transform="translate(312.000000, 14.000000)">
                    <mask id="mask-2" fill="white">
                        <use xlink:href="#path-1"></use>
                    </mask>
                    <g id="Clip-2"></g>
                </g>
                <g id="Page-1" transform="translate(318.000000, 17.000000)">
                    <polygon id="Fill-1" fill="#16407D" points="1.0008 9.3685 -0.0002 26.6735 18.0518 26.6735 17.0528 9.3685"></polygon>
                    <g id="Group-8" transform="translate(3.000000, 0.673700)">
                        <path d="M3.6605,12.3096 C3.6605,13.2756 2.8765,14.0596 1.9105,14.0596 C0.9435,14.0596 0.1605,13.2756 0.1605,12.3096 C0.1605,11.3426 0.9435,10.5596 1.9105,10.5596 C2.8765,10.5596 3.6605,11.3426 3.6605,12.3096" id="Fill-2" fill="#FFFFFF"></path>
                        <path d="M12.2939,12.3096 C12.2939,13.4300496 11.3857095,14.3394 10.2641,14.3394 C9.1436504,14.3394 8.2343,13.4300496 8.2343,12.3096 C8.2343,11.1879905 9.1436504,10.2798 10.2641,10.2798 C11.3857095,10.2798 12.2939,11.1879905 12.2939,12.3096" id="Fill-4" fill="#FFFFFF"></path>
                        <path d="M10.2641,13.3096 C9.7111,13.3096 9.2641,12.8626 9.2641,12.3096 L9.2641,5.7796 C9.2641,3.8746 7.8391,2.3266 6.0871,2.3266 C4.3351,2.3266 2.9101,3.8746 2.9101,5.7796 L2.9101,12.3096 C2.9101,12.8626 2.4621,13.3096 1.9101,13.3096 C1.3571,13.3096 0.9101,12.8626 0.9101,12.3096 L0.9101,5.7796 C0.9101,2.7726 3.2321,0.3266 6.0871,0.3266 C8.9421,0.3266 11.2641,2.7726 11.2641,5.7796 L11.2641,12.3096 C11.2641,12.8626 10.8171,13.3096 10.2641,13.3096" id="Fill-6" fill="#16407D"></path>
                    </g>
                </g>
            </g>
        </g>
    </g>
</svg>