<?xml version="1.0" encoding="UTF-8"?>
<svg width="175px" height="175px" viewBox="0 0 175 175" version="1.1" xmlns="http://www.w3.org/2000/svg" xmlns:xlink="http://www.w3.org/1999/xlink">
    <!-- Generator: Sketch 43.2 (39069) - http://www.bohemiancoding.com/sketch -->
    <title>Group 14</title>
    <desc>Created with Sketch.</desc>
    <defs>
        <polygon id="path-1" points="78.1086705 63.2682663 78.1086705 0.0191276931 0 0.0191276931 0 63.2682663 78.1086705 63.2682663"></polygon>
    </defs>
    <g id="Page-1" stroke="none" stroke-width="1" fill="none" fill-rule="evenodd">
        <g id="Product-Detail-Page---Desktop" transform="translate(-842.000000, -1600.000000)">
            <g id="Group-14" transform="translate(842.000000, 1600.000000)">
                <g id="Group-17">
                    <g id="Group-6" transform="translate(47.000000, 44.000000)" fill="#D0D9E5">
                        <g id="Group-13">
                            <path d="M72.2657488,37.581629 C71.6978035,38.8484708 70.2117288,39.4149448 68.9434157,38.8469995 C67.6780452,38.2790541 67.1100998,36.7915081 67.6795166,35.5246663 C68.2474619,34.2578245 69.7335365,33.6913505 71.0018497,34.2592958 C72.2686915,34.8287126 72.8351655,36.3162585 72.2657488,37.581629 L72.2657488,37.581629 Z M60.6596532,43.5347556 C57.6669049,50.2073778 49.8304362,53.191298 43.157814,50.1970783 C42.0807777,49.7144719 41.1126222,49.0950289 40.2386337,48.3873043 C37.7579191,46.3759538 36.1217656,43.5612401 35.556763,40.503752 C35.0859275,37.9538833 35.3522438,35.2406936 36.49402,32.6967105 C39.0895008,26.9098476 45.3251287,23.9053284 51.2885549,25.158928 C52.2022701,25.3502049 53.1086285,25.635649 53.9973305,26.0329164 C58.6644877,28.1266632 61.5174566,32.5922438 61.7911298,37.369753 C61.9088387,39.4208303 61.5586548,41.530762 60.6596532,43.5347556 L60.6596532,43.5347556 Z M18.0240252,48.9964477 L7.60090384,27.4792643 L30.078886,16.5911929 L19.3453074,40.5214083 C18.5728429,42.2414293 19.3423647,44.261608 21.0623857,45.0326012 L23.7343773,46.2317604 L18.0240252,48.9964477 Z M43.8979086,9.89797162 L46.1108355,14.4680189 L43.6610194,16.6500473 L36.5440462,13.4586653 L43.8979086,9.89797162 Z M67.8781503,27.5131056 L67.8781503,23.2152601 C67.8781503,21.1391697 66.658392,19.2558276 64.763279,18.4068523 L52.531855,12.9201471 C52.230226,12.7833106 51.9182974,12.6906148 51.6034262,12.614104 L46.5787283,2.24100893 C45.7562375,0.54452969 43.7154598,-0.164666316 42.0175092,0.656353127 L1.92586442,20.0783184 C0.229385181,20.8993379 -0.479810825,22.9401156 0.341208618,24.6380662 L15.7537152,56.4533053 C16.5747346,58.1497846 18.6169837,58.8589806 20.313463,58.0364898 L34.6136206,51.1107935 L61.7087336,63.2642354 C63.4287546,64.0352286 65.4489333,63.2671781 66.2213978,61.5456858 L77.8098371,35.7100578 C78.5808303,33.9900368 77.8127798,31.9698581 76.0912874,31.1973936 L67.8781503,27.5131056 Z" id="Fill-1" fill-opacity="0.6" style="mix-blend-mode: multiply;"></path>
                            <path d="M54.3191172,31.4160378 C53.690846,30.8789911 52.98165,30.4169837 52.1900578,30.0623857 C47.7406621,28.0686915 42.5188019,30.0550289 40.5236364,34.5044246 C39.9453915,35.7918655 39.7114451,37.1455176 39.7658854,38.4653284 C39.8953652,41.6802522 41.7787073,44.7009564 44.8935786,46.1325906 C44.9171203,46.1428902 44.9406621,46.1576038 44.9656752,46.1679033 C49.4121282,48.1630688 54.6354598,46.1752601 56.629154,41.7273358 C56.8557436,41.2256017 57.0234787,40.7120967 57.1500158,40.195649 C57.9386653,36.955712 56.8160168,33.5553967 54.3191172,31.4160378" id="Fill-4" opacity="0.6" style="mix-blend-mode: multiply;"></path>
                        </g>
                    </g>
                    <rect id="Rectangle-5" fill="#F2F5F9" x="0" y="0" width="175" height="175"></rect>
                    <text id="PODGLĄD-NIEDOSTĘPNY" font-family="OpenSans-Semibold, Open Sans" font-size="13" font-weight="500" fill="#D0D9E5">
                        <tspan x="56.3044434" y="127">PODGLĄD</tspan>
                        <tspan x="43.0949707" y="145">NIEDOSTĘPNY</tspan>
                    </text>
                </g>
                <g id="Group-4" transform="translate(47.000000, 37.000000)">
                    <g id="Group-3" transform="translate(0.000000, 0.295575)">
                        <mask id="mask-2" fill="white">
                            <use xlink:href="#path-1"></use>
                        </mask>
                        <g id="Clip-2"></g>
                    </g>
                    <g id="Group-13" transform="translate(1.000000, 7.000000)" fill="#D0D9E5">
                        <path d="M72.2657488,37.581629 C71.6978035,38.8484708 70.2117288,39.4149448 68.9434157,38.8469995 C67.6780452,38.2790541 67.1100998,36.7915081 67.6795166,35.5246663 C68.2474619,34.2578245 69.7335365,33.6913505 71.0018497,34.2592958 C72.2686915,34.8287126 72.8351655,36.3162585 72.2657488,37.581629 L72.2657488,37.581629 Z M60.6596532,43.5347556 C57.6669049,50.2073778 49.8304362,53.191298 43.157814,50.1970783 C42.0807777,49.7144719 41.1126222,49.0950289 40.2386337,48.3873043 C37.7579191,46.3759538 36.1217656,43.5612401 35.556763,40.503752 C35.0859275,37.9538833 35.3522438,35.2406936 36.49402,32.6967105 C39.0895008,26.9098476 45.3251287,23.9053284 51.2885549,25.158928 C52.2022701,25.3502049 53.1086285,25.635649 53.9973305,26.0329164 C58.6644877,28.1266632 61.5174566,32.5922438 61.7911298,37.369753 C61.9088387,39.4208303 61.5586548,41.530762 60.6596532,43.5347556 L60.6596532,43.5347556 Z M18.0240252,48.9964477 L7.60090384,27.4792643 L30.078886,16.5911929 L19.3453074,40.5214083 C18.5728429,42.2414293 19.3423647,44.261608 21.0623857,45.0326012 L23.7343773,46.2317604 L18.0240252,48.9964477 Z M43.8979086,9.89797162 L46.1108355,14.4680189 L43.6610194,16.6500473 L36.5440462,13.4586653 L43.8979086,9.89797162 Z M67.8781503,27.5131056 L67.8781503,23.2152601 C67.8781503,21.1391697 66.658392,19.2558276 64.763279,18.4068523 L52.531855,12.9201471 C52.230226,12.7833106 51.9182974,12.6906148 51.6034262,12.614104 L46.5787283,2.24100893 C45.7562375,0.54452969 43.7154598,-0.164666316 42.0175092,0.656353127 L1.92586442,20.0783184 C0.229385181,20.8993379 -0.479810825,22.9401156 0.341208618,24.6380662 L15.7537152,56.4533053 C16.5747346,58.1497846 18.6169837,58.8589806 20.313463,58.0364898 L34.6136206,51.1107935 L61.7087336,63.2642354 C63.4287546,64.0352286 65.4489333,63.2671781 66.2213978,61.5456858 L77.8098371,35.7100578 C78.5808303,33.9900368 77.8127798,31.9698581 76.0912874,31.1973936 L67.8781503,27.5131056 Z" id="Fill-1" fill-opacity="0.6" style="mix-blend-mode: multiply;"></path>
                        <path d="M54.3191172,31.4160378 C53.690846,30.8789911 52.98165,30.4169837 52.1900578,30.0623857 C47.7406621,28.0686915 42.5188019,30.0550289 40.5236364,34.5044246 C39.9453915,35.7918655 39.7114451,37.1455176 39.7658854,38.4653284 C39.8953652,41.6802522 41.7787073,44.7009564 44.8935786,46.1325906 C44.9171203,46.1428902 44.9406621,46.1576038 44.9656752,46.1679033 C49.4121282,48.1630688 54.6354598,46.1752601 56.629154,41.7273358 C56.8557436,41.2256017 57.0234787,40.7120967 57.1500158,40.195649 C57.9386653,36.955712 56.8160168,33.5553967 54.3191172,31.4160378" id="Fill-4" opacity="0.6" style="mix-blend-mode: multiply;"></path>
                    </g>
                </g>
            </g>
        </g>
    </g>
</svg>