<?xml version="1.0" encoding="UTF-8"?>
<svg width="173px" height="173px" viewBox="0 0 173 173" version="1.1" xmlns="http://www.w3.org/2000/svg" xmlns:xlink="http://www.w3.org/1999/xlink">
    <!-- Generator: Sketch 42 (36781) - http://www.bohemiancoding.com/sketch -->
    <title>Group 12</title>
    <desc>Created with Sketch.</desc>
    <defs>
        <polygon id="path-1" points="67.564 54.7270504 67.564 0.0165454545 0 0.0165454545 0 54.7270504 67.564 54.7270504"></polygon>
    </defs>
    <g id="Page-1" stroke="none" stroke-width="1" fill="none" fill-rule="evenodd">
        <g id="Product---v1---iP6-" transform="translate(-194.000000, -647.000000)">
            <g id="Group-12" transform="translate(194.000000, 647.000000)">
                <rect id="Rectangle-3" fill="#D0D9E5" x="0" y="0" width="173" height="173"></rect>
                <g id="Group-6" transform="translate(22.000000, 37.000000)">
                    <text id="Podgląd-Niedostępny" font-family="OpenSans, Open Sans" font-size="13" font-weight="normal" fill="#F5F7F9">
                        <tspan x="0.295166016" y="81">Podgląd Niedostępny</tspan>
                    </text>
                    <g id="Page-1" opacity="0.8" transform="translate(30.000000, 0.000000)">
                        <g id="Group-3" transform="translate(0.000000, 1.255673)">
                            <mask id="mask-2" fill="white">
                                <use xlink:href="#path-1"></use>
                            </mask>
                            <g id="Clip-2"></g>
                            <path d="M62.5098727,32.2524364 C62.0186,33.3482545 60.7331455,33.8382545 59.6360545,33.3469818 C58.5415091,32.8557091 58.0502364,31.5689818 58.5427818,30.4731636 C59.0340545,29.3773455 60.3195091,28.8873455 61.4166,29.3786182 C62.5124182,29.8711636 63.0024182,31.1578909 62.5098727,32.2524364 L62.5098727,32.2524364 Z M52.4706,37.4018909 C49.8818727,43.1737091 43.1033273,45.7548 37.3315091,43.1648 C36.3998727,42.7473455 35.5624182,42.2115273 34.8064182,41.5993455 C32.6606,39.8595273 31.2453273,37.4248 30.7566,34.7800727 C30.3493273,32.5744364 30.5796909,30.2275273 31.5673273,28.0269818 C33.8124182,23.0213455 39.2062364,20.4224364 44.3646,21.5068 C45.1549636,21.6722545 45.9389636,21.9191636 46.7076909,22.2628 C50.7447818,24.0738909 53.2126,27.9366182 53.4493273,32.0691636 C53.5511455,33.8433455 53.2482364,35.6684364 52.4706,37.4018909 L52.4706,37.4018909 Z M15.5907818,42.1262545 L6.57478182,23.5138909 L26.0182364,14.0957091 L16.7336909,34.7953455 C16.0655091,36.2831636 16.7311455,38.0306182 18.2189636,38.6975273 L20.5302364,39.7348 L15.5907818,42.1262545 Z M37.9716909,8.30607273 L39.8858727,12.2591636 L37.7667818,14.1466182 L31.6106,11.3860727 L37.9716909,8.30607273 Z M65.8189636,26.7300727 L58.7146,23.5431636 L58.7146,19.8255273 C58.7146,18.0297091 57.6595091,16.4006182 56.0202364,15.6662545 L45.4400545,10.9202545 C45.1791455,10.8018909 44.9093273,10.7217091 44.6369636,10.6555273 L40.2906,1.6828 C39.5791455,0.215345455 37.8138727,-0.398109091 36.3451455,0.312072727 L1.66587273,17.1120727 C0.198418182,17.8222545 -0.415036364,19.5875273 0.295145455,21.0562545 L13.6269636,48.5764364 C14.3371455,50.0438909 16.1036909,50.6573455 17.5711455,49.9458909 L29.9407818,43.9551636 L53.3780545,54.4678909 C54.8658727,55.1348 56.6133273,54.4704364 57.2815091,52.9813455 L67.3055091,30.6335273 C67.9724182,29.1457091 67.3080545,27.3982545 65.8189636,26.7300727 L65.8189636,26.7300727 Z" id="Fill-1" fill="#FFFFFF" mask="url(#mask-2)"></path>
                        </g>
                        <path d="M46.9860364,28.1748727 C46.4425818,27.7103273 45.8291273,27.3106909 45.1444,27.0039636 C41.2956727,25.2794182 36.7787636,26.9976 35.0529455,30.8463273 C34.5527636,31.9599636 34.3504,33.1308727 34.3974909,34.2725091 C34.5094909,37.0534182 36.1385818,39.6663273 38.8329455,40.9046909 C38.8533091,40.9136 38.8736727,40.9263273 38.8953091,40.9352364 C42.7414909,42.6610545 47.2596727,40.9416 48.9842182,37.0941455 C49.1802182,36.6601455 49.3253091,36.2159636 49.4347636,35.7692364 C50.1169455,32.9666909 49.1458545,30.0254182 46.9860364,28.1748727" id="Fill-4" fill="#FFFFFF"></path>
                    </g>
                </g>
            </g>
        </g>
    </g>
</svg>