<?xml version="1.0" encoding="UTF-8"?>
<svg width="43px" height="29px" viewBox="0 0 43 29" version="1.1" xmlns="http://www.w3.org/2000/svg" xmlns:xlink="http://www.w3.org/1999/xlink">
    <!-- Generator: Sketch 42 (36781) - http://www.bohemiancoding.com/sketch -->
    <title>Group 8</title>
    <desc>Created with Sketch.</desc>
    <defs></defs>
    <g id="Page-1" stroke="none" stroke-width="1" fill="none" fill-rule="evenodd">
        <g id="Home-–-v2---iP6---footer" transform="translate(-76.000000, -3171.000000)">
            <rect id="Rectangle-7" fill="none" x="10" y="3150" width="173" height="114.585938"></rect>
            <g id="Group-8" transform="translate(76.000000, 3171.000000)" stroke-width="1.4" stroke="#000000">
                <g id="Group-2">
                    <g id="Page-1" transform="translate(0.000000, 0.746272)">
                        <path d="M14.5488658,24.8641046 C14.5488658,26.3570968 13.3162082,27.5663654 11.797473,27.5663654 C10.2773355,27.5663654 9.04608024,26.3570968 9.04608024,24.8641046 C9.04608024,23.3724897 10.2773355,22.1618438 11.797473,22.1618438 C13.3162082,22.1618438 14.5488658,23.3724897 14.5488658,24.8641046 Z" id="Stroke-1"></path>
                        <path d="M22.9999328,24.3341199 L17.4691004,24.3341199 C17.4691004,21.2586111 14.9294611,18.7656998 11.798034,18.7656998 C8.66520446,18.7656998 6.12696749,21.2586111 6.12836983,24.3341199 L0.701310669,24.3341199 L0.701310669,0.688649534 L21.0394993,0.688649534" id="Stroke-3" stroke-linecap="round" stroke-linejoin="round"></path>
                        <path d="M35.0443581,24.8641046 C35.0443581,26.3570968 33.8117005,27.5663654 32.2929653,27.5663654 C30.7728278,27.5663654 29.5415725,26.3570968 29.5415725,24.8641046 C29.5415725,23.3724897 30.7728278,22.1618438 32.2929653,22.1618438 C33.8117005,22.1618438 35.0443581,23.3724897 35.0443581,24.8641046 Z" id="Stroke-5"></path>
                        <path d="M21,17.9909691 L21,5.93684763" id="Stroke-7" stroke-linecap="round" stroke-linejoin="round"></path>
                        <path d="M21.9258588,5.93698536 L32.3465347,5.93698536 L41.6917343,15.1359658 L41.6917343,24.333569 L37.9629099,24.333569 C37.9629099,21.2580602 35.4246729,18.7651489 32.2932458,18.7651489 C29.1618186,18.7651489 26.6221793,21.2580602 26.6235816,24.333569 L22.9999328,24.333569" id="Stroke-9" stroke-linecap="round" stroke-linejoin="round"></path>
                        <path d="M21,0.688649534 L21,5.93753628" id="Stroke-11" stroke-linecap="round" stroke-linejoin="round"></path>
                    </g>
                </g>
            </g>
        </g>
    </g>
</svg>
