<?xml version="1.0" encoding="utf-8"?>
<!-- Generator: Adobe Illustrator 16.0.0, SVG Export Plug-In . SVG Version: 6.00 Build 0)  -->
<!DOCTYPE svg PUBLIC "-//W3C//DTD SVG 1.1//EN" "http://www.w3.org/Graphics/SVG/1.1/DTD/svg11.dtd">
<svg version="1.1" id="Layer_1" xmlns="http://www.w3.org/2000/svg" xmlns:xlink="http://www.w3.org/1999/xlink" x="0px" y="0px"
	 width="512px" height="512px" viewBox="0 0 512 512" enable-background="new 0 0 512 512" xml:space="preserve">
<g id="_x23_000000ff">
	<path fill="white" d="M118.42,48.41c9.53-0.02,19.05,0.01,28.57-0.01c5.58,20.03,11.06,40.1,16.61,60.14
		c0.62,2.47,1.32,4.92,2.26,7.3c2.05-0.93,2.06-3.33,2.63-5.2c5.41-20.75,10.9-41.48,16.33-62.22c9.62-0.03,19.24-0.02,28.86-0.01
		c-10.34,30.67-20.69,61.33-31.04,91.99c-0.8,2.51-2.02,4.97-2.02,7.66c0.01,22.59,0.01,45.17,0.01,67.75
		c-9.47,0.01-18.93,0.01-28.4,0c0-19.92,0-39.85,0-59.78c-0.05-2.62,0.31-5.312-0.45-7.87C140.67,114.91,129.54,81.67,118.42,48.41z
		"/>
	<path fill="white" d="M248.32,89.39c10.081-0.88,20.88,0.88,28.959,7.34c7.181,5.42,11.551,14.21,11.631,23.2
		c0.1,21.7,0.02,43.39,0.04,65.09c0.06,7.81-1.94,15.91-7.04,22c-5.79,7.1-14.83,10.81-23.801,11.62
		c-10.779,1.12-22.561-0.62-31.061-7.82c-7.4-5.97-11.23-15.49-11.29-24.87c-0.06-22-0.02-44-0.01-65.99
		c-0.02-7.42,2.63-14.95,7.95-20.21C230.11,93.14,239.31,90.03,248.32,89.39 M247.26,111.44c-3.49,1.26-5.85,4.87-5.55,8.58
		c-0.02,22,0.02,43.99-0.02,65.99c-0.04,3.05,0.4,6.39,2.63,8.67c3.16,3.29,8.39,3.39,12.491,2.11c4.061-1.32,6.619-5.54,6.42-9.74
		c0.05-22.02-0.021-44.05,0.029-66.08c0.08-2.51-0.31-5.24-2.189-7.08C257.57,110.31,251.8,109.88,247.26,111.44z"/>
	<path fill="white" d="M309.44,92.33c8.39-0.01,16.79-0.01,25.18,0c0.04,31.89-0.05,63.78,0.05,95.66
		c-0.26,3.67,2.25,7.68,6.312,7.33c6.18-0.45,11.13-4.98,15.238-9.24c-0.04-31.25-0.02-62.5-0.01-93.75c8.4,0,16.81-0.03,25.22,0.01
		c-0.02,41.16,0.012,82.33-0.01,123.49c-8.41,0-16.81,0.01-25.22,0c0-4.55-0.01-9.09,0.01-13.64c-6.71,7.15-15.09,13.39-24.95,15.08
		c-5.67,0.94-12.21,0.2-16.41-4.09c-4.38-4.49-5.34-11.11-5.408-17.12C309.43,161.48,309.44,126.91,309.44,92.33z"/>
	<path fill="white" d="M107.17,255.19c3.26-0.33,6.55-0.43,9.83-0.43c89.67,0.01,179.34,0,269.01,0
		c7.972,0.04,16.021-0.31,23.91,1.12c19.25,3.12,37.15,13.62,49.41,28.79c11.53,14.09,18.04,32.17,18.12,50.38
		c0.05,18,0.01,36,0.02,54c-0.05,8.63,0.36,17.34-1.27,25.87c-3.32,19.18-13.96,36.93-29.19,49.04
		c-14.3,11.53-32.64,17.85-51.01,17.69c-86.98,0.02-173.97,0-260.95,0.01c-12.03-0.25-24.21,0.87-36.07-1.7
		c-19.1-3.88-36.57-15.04-48.23-30.63c-10.45-13.8-16.23-31.03-16.23-48.34c-0.01-21.99-0.02-43.971,0.01-65.961
		c0.07-17.739,6.24-35.359,17.23-49.271C65.09,268.63,85.55,257.28,107.17,255.19 M97,283.3c-0.02,7.36-0.01,14.72-0.01,22.08
		c8.7,0.021,17.41,0,26.11,0.011c0.03,43.279,0,86.569,0.01,129.851c8.42,0.01,16.83,0.01,25.24,0
		c0.02-43.28-0.01-86.57,0.01-129.851c8.71-0.011,17.41,0.01,26.12-0.011c0.01-7.351-0.01-14.71,0.01-22.069
		C148.66,283.279,122.83,283.311,97,283.3 M265.16,283.3c-0.01,50.64,0,101.29,0,151.94c7.55,0.01,15.109,0.01,22.66,0
		c0-2.83,0.02-5.65,0-8.472c7.188,8.922,20.3,12.58,30.898,7.98c7.79-3.6,10.75-12.76,10.87-20.76c0.08-21.351,0.01-42.7,0.03-64.04
		c-0.03-7.672-1.18-15.979-6.42-21.95c-4.682-5.42-12.48-7.029-19.301-5.851c-6.41,1.181-11.739,5.34-16.08,9.99
		c0.011-16.281,0.011-32.561,0-48.841C280.27,283.3,272.721,283.3,265.16,283.3 M350.19,330.24c-5.96,5.949-8.9,14.43-8.82,22.77
		c0,17.35-0.03,34.69,0.01,52.04c0.062,9.771,3.37,20.07,11.13,26.432c8.13,6.858,19.54,7.76,29.66,6.21
		c7.78-1.11,15.47-5.021,19.73-11.83c5.358-8.23,5.618-18.432,5.42-27.932c-7.682-0.01-15.36-0.01-23.03,0
		c-0.14,5.58,0.47,11.44-1.6,16.762c-2.102,4.29-7.87,4.52-11.95,3.56c-4.521-1.09-5.8-6.2-6.07-10.22
		c-0.479-8.67-0.02-17.352-0.25-26.021c14.3-0.24,28.6-0.029,42.9-0.109c-0.012-9.949,0.04-19.891-0.012-29.84
		c-0.09-8.74-2.55-18.051-9.188-24.131c-6.66-6.22-16.23-7.938-25.05-7.5C364.58,320.721,356.09,324.04,350.19,330.24
		 M184.33,323.15c0,31.289,0,62.58,0,93.868c0.03,5.552,0.84,11.642,4.79,15.86c3.98,4.17,10.33,4.61,15.68,3.53
		c8.37-1.83,15.39-7.28,21.14-13.4c-0.02,4.07-0.02,8.15-0.01,12.23c7.46,0.01,14.92,0.01,22.37,0
		c0.02-37.37,0.01-74.73,0.01-112.101c-7.46,0-14.92,0-22.38,0.01c0.01,26.959-0.03,53.92,0.02,80.881
		c-0.13,1.898,0.54,4.31-1.26,5.648c-3.69,3.42-8.18,7.512-13.59,6.86c-3.64-0.4-4.52-4.57-4.37-7.601c0-28.601,0-57.199,0-85.8
		C199.26,323.141,191.8,323.13,184.33,323.15z"/>
	<path fill="white" d="M287.811,344.02c3.489-3.608,9.039-5.84,13.851-3.51c3.868,1.82,4.898,6.48,4.858,10.381
		c0.021,19.389,0.021,38.779,0.012,58.159c0,3.44-0.551,7.812-4.12,9.38c-5.24,2.11-10.938-0.59-14.601-4.41
		C287.84,390.68,287.84,367.35,287.811,344.02z"/>
	<path fill="white" d="M365.29,346.061c1.94-8.061,15.66-8.33,17.99-0.42c1.75,6.101,0.729,12.549,1,18.811
		c-6.61,0.01-13.21,0.01-19.812,0C364.71,358.33,363.81,352.07,365.29,346.061z"/>
</g>
</svg>
